<svg width="270" height="111" viewBox="0 0 270 111" fill="none" xmlns="http://www.w3.org/2000/svg">
<g clip-path="url(#clip0_1974_1454)">
<path d="M24.1338 65.5336C24.4415 65.9072 24.7877 66.0446 25.1779 65.9402C25.568 65.8358 25.9691 65.583 26.3758 65.1764C31.2608 60.3906 30.2442 56.5719 23.3206 53.7202C22.4743 55.0444 21.749 56.1873 21.1555 57.1543C20.5621 58.1214 20.0621 58.9456 19.6554 59.6214C19.1829 60.4016 18.7707 61.0445 18.4355 61.5555C19.5565 61.9951 20.5841 62.55 21.5182 63.2094C22.4524 63.8687 23.3261 64.6434 24.1393 65.5281L24.1338 65.5336Z" fill="url(#paint0_linear_1974_1454)"/>
<path d="M54.9823 98.8916C54.4713 98.5015 53.9053 98.1443 53.2789 97.8202C52.6525 97.496 52.0151 97.2158 51.3722 96.9795C50.4215 98.1334 49.5588 99.2103 48.773 100.21C47.9873 101.21 47.163 102.304 46.2783 103.496C46.141 103.024 45.8607 102.578 45.4376 102.172C45.0145 101.765 44.5145 101.381 43.9375 101.029C43.3605 100.672 42.7396 100.342 42.0802 100.034C41.4208 99.7268 40.7669 99.4576 40.1185 99.2213C39.6075 99.8312 39.1349 100.408 38.6953 100.952C38.2557 101.496 37.8216 102.04 37.3985 102.578C36.9754 103.122 36.5413 103.688 36.1017 104.282C35.6621 104.875 35.1675 105.529 34.6235 106.243C35.0631 106.348 35.5742 106.535 36.1511 106.804C36.7281 107.073 37.2886 107.381 37.8326 107.721C38.3766 108.062 38.8821 108.408 39.3602 108.765C39.8327 109.123 40.2284 109.436 40.5306 109.705C41.0746 109.705 41.6681 109.518 42.311 109.144C42.9539 108.771 43.5693 108.304 44.1463 107.743C44.7233 107.183 45.2178 106.579 45.6244 105.936C46.0311 105.293 46.2838 104.699 46.3882 104.155C46.8993 104.26 47.4048 104.436 47.9158 104.688C48.4269 104.941 48.9269 105.221 49.4159 105.529C49.9105 105.837 50.3501 106.139 50.7402 106.447C51.1304 106.754 51.4436 107.024 51.6799 107.26C52.2568 107.26 52.8448 107.084 53.4383 106.727C54.0317 106.37 54.5757 105.914 55.0648 105.353C55.5593 104.793 55.9549 104.188 56.2627 103.546C56.5704 102.903 56.7187 102.287 56.7187 101.71C56.7187 101.166 56.5594 100.661 56.2352 100.183C55.911 99.7103 55.4989 99.2762 54.9878 98.8861L54.9823 98.8916Z" fill="url(#paint1_linear_1974_1454)"/>
<path d="M138.857 23.4341C139.467 23.8078 140.022 24.1869 140.511 24.577C141.006 24.9671 141.368 25.3133 141.605 25.621C142.011 25.3518 142.462 24.9781 142.956 24.5001C143.451 24.0276 143.907 23.5056 144.33 22.9451C144.753 22.3847 145.11 21.8023 145.402 21.1869C145.693 20.5715 145.836 19.9835 145.836 19.4066C145.836 18.8297 145.676 18.3022 145.352 17.8297C145.028 17.3571 144.616 16.9231 144.105 16.533C143.594 16.1428 143.028 15.7967 142.401 15.489C141.775 15.1813 141.137 14.912 140.495 14.6758C140.022 15.2527 139.571 15.8022 139.143 16.3297C138.72 16.8571 138.286 17.4011 137.846 17.956C137.406 18.5165 136.956 19.0989 136.494 19.7143C136.038 20.3242 135.538 20.9891 134.994 21.6979C135.604 21.8682 136.252 22.1045 136.928 22.4122C137.61 22.7199 138.253 23.055 138.863 23.4287L138.857 23.4341Z" fill="url(#paint2_linear_1974_1454)"/>
<path d="M167.673 19.643C168.184 19.7969 168.689 19.9672 169.2 20.154C169.711 20.3408 170.25 20.5112 170.827 20.665C171.404 20.8189 172.063 20.8958 172.811 20.8958C174.948 20.8958 177.163 20.4892 179.454 19.676C181.745 18.8628 183.91 17.6375 185.944 16.0111C187.982 14.3847 189.79 12.3297 191.367 9.85168C192.944 7.37362 194.125 4.47248 194.906 1.14826C194.532 1.04386 194.246 1.15924 194.038 1.47793C193.834 1.80211 193.647 2.09882 193.477 2.36805C192.664 3.69225 191.68 4.89556 190.526 5.98349C189.372 7.07142 188.108 7.99451 186.735 8.75825C185.361 9.522 183.927 10.1154 182.432 10.5385C180.938 10.9616 179.443 11.1759 177.954 11.1759C176.866 11.1759 176.02 11.1264 175.41 11.022C174.8 10.9176 174.256 10.8022 173.783 10.6649C173.311 10.5275 172.827 10.4121 172.332 10.3077C171.838 10.2033 171.168 10.1539 170.321 10.1539C168.86 10.1539 167.469 10.6264 166.145 11.577C164.821 12.5275 163.634 13.6979 162.579 15.088C161.524 16.4781 160.645 17.9562 159.93 19.5166C159.216 21.0771 158.76 22.4837 158.557 23.742C158.93 23.8079 159.244 23.7255 159.496 23.4892C159.749 23.253 160.013 22.9453 160.288 22.5716C161.002 21.5881 161.843 20.8134 162.81 20.2529C163.777 19.6925 164.854 19.4123 166.041 19.4123C166.618 19.4123 167.162 19.4892 167.667 19.643H167.673Z" fill="url(#paint3_linear_1974_1454)"/>
<path d="M207.858 41.7423C208.468 42.1159 209.023 42.495 209.512 42.8851C210.006 43.2752 210.369 43.6214 210.605 43.9291C211.012 43.6599 211.462 43.2862 211.957 42.8082C212.451 42.3357 212.907 41.8137 213.331 41.2532C213.754 40.6928 214.111 40.1104 214.402 39.495C214.693 38.8851 214.836 38.2917 214.836 37.7147C214.836 37.1378 214.677 36.6103 214.353 36.1378C214.028 35.6652 213.616 35.2312 213.105 34.8411C212.594 34.4509 212.028 34.1048 211.402 33.7971C210.775 33.4894 210.138 33.2202 209.495 32.9839C209.023 33.5608 208.572 34.1103 208.143 34.6378C207.72 35.1652 207.286 35.7092 206.847 36.2642C206.407 36.8246 205.956 37.407 205.495 38.0224C205.039 38.6323 204.539 39.2972 203.995 40.006C204.605 40.1763 205.253 40.4126 205.929 40.7203C206.61 41.028 207.253 41.3631 207.863 41.7368L207.858 41.7423Z" fill="url(#paint4_linear_1974_1454)"/>
<path d="M42.4868 69.2535C42.8495 68.2425 43.1902 67.1216 43.5144 65.8743C43.8386 64.6326 44.1463 63.3633 44.432 62.0666C44.7177 60.7699 44.965 59.5116 45.1628 58.2863C45.3607 57.061 45.5145 55.9786 45.6244 55.0445C46.9597 55.0445 48.1466 54.6764 49.1906 53.9346C50.2347 53.1983 51.1359 52.1763 51.8942 50.8796C52.6525 49.5829 53.2514 48.0719 53.702 46.3411C54.1526 44.6103 54.4328 42.7367 54.5372 40.7201C54.1031 40.6487 53.7789 40.7201 53.5646 40.9344C53.3503 41.1487 53.1855 41.4949 53.0811 41.9619C52.647 43.7971 51.8832 45.1872 50.7842 46.1213C49.6852 47.0554 48.3279 47.5279 46.7069 47.5279C46.1684 47.5279 45.6629 47.473 45.1958 47.3686C44.7287 47.2587 44.2946 47.2092 43.899 47.2092C43.3935 47.2092 42.9429 47.3961 42.5472 47.7752C42.1516 48.1543 41.9538 49.0115 41.9538 50.3412C41.9538 50.5225 41.9703 50.8741 42.0087 51.3961C42.0472 51.9181 42.0692 52.495 42.0912 53.1269C42.1131 53.7588 42.1351 54.3687 42.1736 54.9621C42.212 55.5555 42.2285 56.0171 42.2285 56.3412C42.2285 57.7094 42.1406 59.2424 41.9593 60.9347C41.7779 62.627 41.3274 64.3908 40.6075 66.2315C39.7448 68.5008 38.6183 70.5832 37.2281 72.4733C35.8379 74.3635 34.2004 76.0009 32.3101 77.391C30.4199 78.7756 28.2604 79.8471 25.8261 80.6053C23.3973 81.3636 20.7213 81.7372 17.8035 81.7372C15.6769 81.7372 13.8416 81.468 12.292 80.9295C10.7425 80.391 9.46213 79.6438 8.45655 78.6877C7.45097 77.7317 6.70916 76.6053 6.24208 75.3085C5.77501 74.0118 5.53873 72.6272 5.53873 71.1491C5.53873 69.0227 5.91788 66.9733 6.67069 64.9897C7.429 63.0062 8.33017 60.8468 9.37421 58.5061C9.62698 57.9676 9.7094 57.4896 9.61599 57.072C9.52807 56.6599 9.30277 56.3248 8.94011 56.072C7.89607 57.7643 6.90697 59.5226 5.96734 61.3413C5.0332 63.16 4.20895 65.0172 3.51109 66.9073C2.80774 68.7975 2.24176 70.7261 1.80766 72.6876C1.37356 74.6492 1.14277 76.6382 1.1043 78.6547C1.06584 80.6713 1.29113 82.5999 1.78018 84.435C2.26374 86.2702 3.02204 87.8911 4.0496 89.2978C5.07716 90.7044 6.40144 91.8253 8.02245 92.6769C9.64346 93.5231 11.5722 93.9462 13.8031 93.9462C17.3694 93.9462 20.6663 93.2593 23.6886 91.8912C26.7163 90.523 29.4363 88.6933 31.8486 86.4076C34.2608 84.1219 36.3599 81.4899 38.1403 78.5174C39.9207 75.5448 41.3713 72.4569 42.4923 69.2535H42.4868Z" fill="url(#paint5_linear_1974_1454)"/>
<path d="M157.491 31.6046C157.084 30.7749 156.551 30.0881 155.886 29.5442C155.227 29.0002 154.386 28.731 153.364 28.731C152.787 28.731 152.243 28.8683 151.738 29.1376C151.232 29.4068 150.82 29.8683 150.518 30.5112C150.111 31.3574 149.781 32.0662 149.523 32.6266C149.27 33.1871 149.023 33.7036 148.787 34.1816C148.551 34.6541 148.287 35.1486 147.996 35.6596C147.704 36.1706 147.342 36.7805 146.902 37.4948C146.561 38.1377 146.391 38.786 146.391 39.4289C146.391 40.1432 146.605 40.7531 147.029 41.2641C147.452 41.7751 147.996 42.1652 148.655 42.4344C149.314 42.7037 150.045 42.8136 150.842 42.7641C151.639 42.7147 152.414 42.4839 153.161 42.0773C153.633 42.2147 153.958 42.4344 154.128 42.7366C154.298 43.0443 154.419 43.396 154.485 43.8081C151.496 46.929 148.292 49.6983 144.863 52.1049C141.435 54.517 137.973 56.6544 134.478 58.5171C130.95 60.3852 127.302 62.0226 123.532 63.4292C119.763 64.8359 115.795 66.0062 111.619 66.9403C107.443 67.8744 103.041 68.5777 98.4092 69.0557C93.7769 69.5282 88.8315 69.77 83.5673 69.77C75.4238 69.77 67.7144 68.2095 60.4555 65.0886C59.8126 64.8194 59.1972 64.8084 58.6202 65.0611C58.0432 65.3139 57.4992 65.715 56.9937 66.259C56.4882 66.8029 56.0101 67.4568 55.5705 68.2205C55.1309 68.9843 54.7408 69.7315 54.4001 70.4623C54.0594 71.1931 53.7737 71.8689 53.5319 72.5008C53.2956 73.1272 53.1253 73.5942 53.0208 73.9019C52.0702 76.2096 50.702 78.4569 48.9216 80.6493C47.1412 82.8361 44.74 85.0889 41.7177 87.3966C41.3441 87.6658 40.9979 88.0395 40.6737 88.5175C40.3495 88.99 40.3275 89.6054 40.5968 90.3527C41.3111 90.2153 42.0145 90.0999 42.7123 89.9955C43.4102 89.8912 44.1465 89.8087 44.9268 89.7428C46.35 89.6384 47.6248 89.0615 48.7458 88.012C49.8667 86.9625 50.8613 85.7043 51.724 84.2427C52.5922 82.7812 53.3725 81.2647 54.0649 79.6877C54.7573 78.1108 55.3947 76.7591 55.9716 75.6382C56.3123 75.6382 56.6145 75.7591 56.8893 75.9954C58.3125 77.0119 59.9885 77.8525 61.9062 78.5174C63.8239 79.1767 65.8516 79.7152 67.9891 80.1218C70.1266 80.5284 72.3191 80.8196 74.5556 80.9899C76.7975 81.1603 78.9351 81.2427 80.9682 81.2427C86.7709 81.2427 92.2713 80.8416 97.464 80.0449C102.657 79.2481 107.525 78.1602 112.075 76.7866C116.625 75.4129 120.884 73.8195 124.856 72.0008C128.829 70.1876 132.494 68.2755 135.852 66.2754C139.215 64.2754 142.286 62.1325 145.067 59.8633C147.853 57.5885 150.243 55.2039 152.243 52.7093C154.243 50.2148 155.809 47.6433 156.925 44.9949C158.046 42.3465 158.606 39.6652 158.606 36.9509C158.606 36.1377 158.524 35.253 158.354 34.3025C158.183 33.3519 157.898 32.4618 157.485 31.6321L157.491 31.6046Z" fill="url(#paint6_linear_1974_1454)"/>
<path d="M171.948 33.2585C171.712 33.7311 171.453 34.2091 171.184 34.6816C170.811 35.363 170.404 36.0883 169.964 36.8685C169.525 37.6487 169.063 38.5169 168.591 39.4674C168.184 40.2477 167.794 41.0224 167.42 41.7861C167.046 42.5499 166.706 43.3301 166.404 44.1268C166.096 44.9235 165.854 45.7532 165.667 46.6214C165.48 47.4895 165.387 48.3961 165.387 49.3467V52.7588C165.387 54.083 165.376 55.5061 165.36 57.0336C165.343 58.5611 165.299 60.1326 165.233 61.7425C165.167 63.3524 165.074 64.8964 164.953 66.3744C164.832 67.8524 164.673 69.2151 164.469 70.4734C164.266 71.7316 164.013 72.7646 163.706 73.5778C164.623 73.5778 165.48 73.0503 166.277 72.0008C167.074 70.9514 167.777 69.6327 168.393 68.0557C169.003 66.4788 169.503 64.77 169.893 62.9403C170.283 61.1051 170.547 59.4128 170.684 57.8468C170.822 56.2204 170.931 54.3687 171.014 52.2973C171.096 50.2258 171.212 48.1324 171.344 46.0115C171.481 43.8906 171.673 41.8356 171.932 39.852C172.184 37.8685 172.585 36.1432 173.129 34.6871C173.399 33.9069 173.454 33.2805 173.283 32.8025C173.113 32.33 172.926 32.0058 172.723 31.8354C172.454 32.308 172.195 32.786 171.959 33.2585H171.948Z" fill="url(#paint7_linear_1974_1454)"/>
<path d="M180.394 65.3414C180.207 65.6656 180.053 65.9952 179.938 66.3359C179.817 66.6766 179.74 66.9458 179.707 67.1491C179.536 67.792 179.361 68.4403 179.174 69.0832C178.987 69.7261 178.773 70.3579 178.536 70.9678C177.893 72.803 177.135 74.4569 176.272 75.9294C175.404 77.4075 174.421 78.7646 173.322 80.0009C172.217 81.2372 170.981 82.3911 169.607 83.4625C168.233 84.5339 166.733 85.5944 165.101 86.6439C164.728 86.8801 164.337 87.2538 163.931 87.7648C163.524 88.2758 163.321 88.9351 163.321 89.7483C163.76 89.6109 164.288 89.4571 164.898 89.2923C165.508 89.1219 166.134 88.9516 166.783 88.7813C167.426 88.6109 168.046 88.4681 168.64 88.3472C169.233 88.2263 169.733 88.1714 170.14 88.1714C171.497 88.1714 172.668 87.7483 173.651 86.8966C174.635 86.0505 175.476 85.012 176.173 83.7922C176.871 82.5724 177.448 81.2647 177.904 79.8745C178.36 78.4844 178.762 77.2426 179.102 76.1602C179.542 74.7371 179.96 73.2096 180.35 71.5777C180.74 69.9458 181.124 68.237 181.493 66.4348C181.559 66.1271 181.635 65.737 181.723 65.2645C181.806 64.7919 181.938 64.4183 182.103 64.1436C181.696 64.1436 181.355 64.2644 181.086 64.5007C180.817 64.737 180.586 65.0172 180.399 65.3414H180.394Z" fill="url(#paint8_linear_1974_1454)"/>
<path d="M193.45 45.3577C193.01 46.138 192.548 47.0061 192.076 47.9567C191.669 48.7369 191.279 49.5117 190.906 50.2754C190.532 51.0391 190.191 51.8194 189.889 52.6161C189.581 53.4128 189.339 54.2425 189.153 55.1106C188.966 55.9788 188.872 56.8854 188.872 57.8359V61.2481C188.872 62.5723 188.861 63.9954 188.845 65.5229C188.828 67.0504 188.784 68.6218 188.719 70.2317C188.653 71.8416 188.559 73.3856 188.438 74.8637C188.317 76.3417 188.158 77.7044 187.955 78.9626C187.751 80.2209 187.499 81.2539 187.191 82.0671C188.109 82.0671 188.966 81.5396 189.763 80.4901C190.559 79.4406 191.263 78.1219 191.878 76.545C192.488 74.9681 192.988 73.2592 193.378 71.4295C193.768 69.5944 194.032 67.902 194.169 66.3361C194.307 64.7097 194.417 62.858 194.499 60.7865C194.582 58.7151 194.697 56.6216 194.829 54.5007C194.966 52.3798 195.159 50.3249 195.417 48.3413C195.67 46.3578 196.071 44.6325 196.615 43.1764C196.884 42.3962 196.939 41.7698 196.769 41.2918C196.598 40.8192 196.411 40.495 196.208 40.3247C195.939 40.7972 195.681 41.2753 195.444 41.7478C195.208 42.2203 194.95 42.6984 194.681 43.1709C194.307 43.8522 193.9 44.5775 193.461 45.3577H193.45Z" fill="url(#paint9_linear_1974_1454)"/>
<path d="M225.474 86.2922C225.271 86.6659 225.068 87.0999 224.864 87.589C224.661 88.0835 224.507 88.5285 224.408 88.9406C223.936 88.7703 223.612 88.534 223.441 88.2263C223.271 87.9186 223.188 87.5285 223.188 87.056C223.188 86.4131 223.359 85.6713 223.7 84.8417C224.04 84.012 224.419 83.1768 224.842 82.3471C225.266 81.5174 225.65 80.7537 225.985 80.0559C226.326 79.3581 226.496 78.8416 226.496 78.5009C226.496 78.1273 226.452 77.8635 226.37 77.7097C226.288 77.5558 226.156 77.4295 225.991 77.3306C225.551 78.1438 225.013 79.1053 224.386 80.2042C223.76 81.3086 223.167 82.468 222.606 83.6933C222.046 84.9131 221.562 86.1439 221.155 87.3856C220.749 88.6219 220.545 89.7868 220.545 90.8747C220.545 91.3143 220.595 91.7813 220.699 92.2758C220.804 92.7703 220.969 93.2154 221.21 93.6275C221.447 94.0341 221.76 94.3638 222.15 94.622C222.54 94.8748 223.007 95.0011 223.551 95.0011C224.161 95.0011 224.722 94.8253 225.233 94.4682C225.744 94.111 226.183 93.6715 226.557 93.144C226.931 92.6165 227.216 92.0505 227.425 91.4407C227.628 90.8308 227.733 90.2703 227.733 89.7593C227.733 87.9955 226.985 86.8417 225.491 86.2977L225.474 86.2922Z" fill="url(#paint10_linear_1974_1454)"/>
<path d="M234.382 51.418L232.447 55.8466C231.936 55.8466 231.508 55.8026 231.151 55.7202C230.793 55.6378 230.447 55.5334 230.107 55.4125C229.766 55.2916 229.392 55.1927 228.986 55.1048C228.579 55.0224 228.068 54.9785 227.458 54.9785C225.623 54.9785 223.837 55.3521 222.084 56.0994C220.337 56.8466 218.633 57.8741 216.968 59.1818C215.303 60.4895 213.699 62.006 212.155 63.7368C210.61 65.4676 209.127 67.3028 207.698 69.2369C206.204 71.2754 204.747 73.3523 203.319 75.4733C201.895 77.5942 200.401 79.6491 198.84 81.6327C197.28 83.6162 195.598 85.4844 193.801 87.2317C192.005 88.9789 189.966 90.5009 187.691 91.7867C187.554 91.8526 187.35 91.946 187.081 92.0669C186.812 92.1878 186.532 92.3581 186.24 92.5779C185.949 92.7977 185.707 93.0889 185.504 93.446C185.301 93.8032 185.196 94.2537 185.196 94.7977C185.57 94.7647 185.949 94.7208 186.339 94.6713C186.729 94.6219 187.131 94.5285 187.537 94.3911C189.576 93.8471 191.494 93.0065 193.29 91.8691C195.087 90.7317 196.769 89.424 198.329 87.9515C199.89 86.4734 201.34 84.891 202.681 83.1931C204.022 81.4953 205.269 79.814 206.423 78.1546C207.44 76.6931 208.539 75.226 209.709 73.7534C210.88 72.2754 212.16 70.9347 213.556 69.7314C214.946 68.5281 216.468 67.5336 218.111 66.7533C219.76 65.9731 221.584 65.5665 223.584 65.5335C224.298 65.5006 224.969 65.594 225.595 65.8138C226.222 66.0336 226.925 66.1434 227.711 66.1434C229.134 66.1434 230.453 65.8358 231.656 65.2259C232.86 64.616 233.904 63.8192 234.788 62.8357C235.673 61.8522 236.365 60.7423 236.876 59.5005C237.387 58.2642 237.64 56.995 237.64 55.7092C237.64 54.6213 237.393 53.6817 236.904 52.885C236.409 52.0883 235.574 51.6048 234.382 51.4345V51.418Z" fill="url(#paint11_linear_1974_1454)"/>
<path d="M254.224 62.4898C253.988 61.5887 253.619 60.792 253.13 60.0997C252.636 59.4019 252.026 58.8524 251.295 58.4458C250.564 58.0392 249.724 57.8359 248.773 57.8359C248.229 57.8359 247.822 58.0228 247.553 58.3964C247.284 58.77 246.976 59.314 246.635 60.0228C246.399 60.5667 246.196 61.0338 246.025 61.4239C245.855 61.814 245.668 62.2206 245.465 62.6437C245.262 63.0668 245.025 63.5668 244.751 64.1437C244.481 64.7206 244.141 65.4514 243.734 66.3306C243.531 66.7372 243.344 67.1273 243.174 67.5009C243.003 67.8745 242.866 68.2152 242.767 68.5174C242.663 68.8251 242.63 69.0614 242.663 69.2317C242.696 69.402 242.833 69.4845 243.069 69.4845C243.305 69.4845 243.492 69.5009 243.63 69.5339C242.679 71.2317 241.992 72.7098 241.569 73.9625C241.146 75.2208 240.932 76.4406 240.932 77.6274C240.932 79.0505 241.272 80.1494 241.948 80.9132C242.63 81.6769 243.509 82.0561 244.597 82.0561C246.124 82.0561 247.509 81.5121 248.745 80.4297C249.982 79.3417 251.037 77.9681 251.9 76.3032C252.768 74.6384 253.427 72.8307 253.883 70.8801C254.339 68.9295 254.57 67.0888 254.57 65.358C254.57 64.3415 254.449 63.38 254.213 62.4844L254.224 62.4898ZM248.877 76.056C248.031 76.5285 247.163 76.7703 246.278 76.7703C245.498 76.7703 244.811 76.556 244.218 76.1329C243.624 75.7098 243.327 75.0724 243.327 74.2263C243.327 73.8856 243.393 73.512 243.531 73.1054C243.668 72.6988 243.816 72.2922 243.987 71.8856C244.157 71.479 244.344 71.0889 244.547 70.7152C244.751 70.3416 244.937 70.0009 245.108 69.6987C246.635 69.902 247.866 70.3251 248.8 70.9735C249.735 71.6163 250.339 72.5834 250.608 73.8746C250.301 74.8582 249.724 75.5889 248.877 76.0615V76.056Z" fill="url(#paint12_linear_1974_1454)"/>
<path d="M267.587 60.0721C266.62 58.138 264.878 56.627 262.367 55.5391C262.026 56.083 261.636 56.7424 261.197 57.5226C260.757 58.3028 260.307 59.127 259.845 59.9897C259.389 60.8578 258.955 61.704 258.548 62.5337C258.142 63.3633 257.801 64.1051 257.532 64.748C260.076 66.0392 261.878 67.27 262.928 68.4403C263.977 69.6107 264.521 70.8909 264.554 72.2865C264.181 72.6931 263.68 73.1767 263.054 73.7371C262.428 74.2976 261.774 74.8415 261.092 75.3635C260.411 75.891 259.763 76.391 259.131 76.8635C258.504 77.3361 258.004 77.7097 257.631 77.9844C257.054 78.391 256.57 78.7372 256.18 79.0284C255.79 79.3196 255.466 79.5943 255.213 79.8691C254.96 80.1383 254.779 80.457 254.68 80.8087C254.575 81.1658 254.526 81.5999 254.526 82.1054C257.581 80.7482 259.823 80.0669 261.246 80.0669C261.686 80.0669 262.241 79.924 262.9 79.6328C263.56 79.3416 264.01 79.0284 264.252 78.6932C265.472 77.0998 266.527 75.1987 267.406 72.9899C268.291 70.7865 268.78 68.5612 268.884 66.3194C268.989 64.0776 268.554 61.9897 267.587 60.0556V60.0721Z" fill="url(#paint13_linear_1974_1454)"/>
<path d="M23.315 53.7262C30.2386 56.5779 31.2552 60.3967 26.3702 65.1824C25.9636 65.589 25.5624 65.8418 25.1723 65.9462C25.0899 65.9682 25.0075 65.9792 24.925 65.9792C24.6338 65.9792 24.3645 65.8308 24.1283 65.5396C23.315 64.655 22.4413 63.8857 21.5072 63.2209C20.573 62.5615 19.5455 62.0066 18.4245 61.567C18.7652 61.056 19.1718 60.4131 19.6444 59.6329C20.051 58.9516 20.551 58.1329 21.1445 57.1658C21.738 56.1988 22.4578 55.0504 23.3095 53.7317M23.3095 52.6328C22.9468 52.6328 22.5897 52.8141 22.3864 53.1383C21.5401 54.4625 20.8038 55.6219 20.2104 56.5944C19.6114 57.5669 19.1114 58.3911 18.7047 59.0725C18.2432 59.8307 17.842 60.4681 17.5123 60.9626C17.3255 61.2373 17.2761 61.5835 17.3805 61.9022C17.4794 62.2209 17.7156 62.4736 18.0289 62.5945C19.0619 63.0011 20.018 63.5176 20.8752 64.122C21.7325 64.7319 22.5512 65.4517 23.304 66.2649C23.87 66.9352 24.4964 67.0781 24.9305 67.0781C25.1009 67.0781 25.2767 67.0561 25.4525 67.0121C26.035 66.8583 26.601 66.5066 27.1505 65.9627C29.7441 63.4242 30.8486 61.0066 30.4145 58.7813C29.9419 56.3526 27.7604 54.3691 23.7381 52.7152C23.6007 52.6603 23.4579 52.6328 23.3205 52.6328H23.3095Z" fill="url(#paint14_linear_1974_1454)"/>
<path d="M51.3725 96.9792C52.0155 97.2154 52.6529 97.4957 53.2793 97.8198C53.9057 98.144 54.4772 98.5012 54.9827 98.8913C55.4938 99.2814 55.9059 99.7155 56.2301 100.188C56.5543 100.661 56.7136 101.172 56.7136 101.715C56.7136 102.292 56.5598 102.902 56.2576 103.551C55.9498 104.194 55.5542 104.798 55.0597 105.358C54.5651 105.919 54.0266 106.375 53.4331 106.732C52.8397 107.089 52.2517 107.265 51.6748 107.265C51.4385 107.029 51.1253 106.754 50.7351 106.452C50.345 106.144 49.9054 105.842 49.4108 105.534C48.9163 105.227 48.4163 104.946 47.9107 104.694C47.3997 104.441 46.8942 104.259 46.3831 104.161C46.2787 104.705 46.026 105.298 45.6193 105.941C45.2127 106.584 44.7182 107.188 44.1412 107.749C43.5642 108.309 42.9543 108.776 42.3059 109.15C41.663 109.523 41.0695 109.71 40.5255 109.71C40.2178 109.441 39.8277 109.122 39.3551 108.771C38.8825 108.413 38.3715 108.067 37.8275 107.727C37.2835 107.386 36.723 107.084 36.146 106.809C35.5691 106.54 35.058 106.353 34.6184 106.249C35.1624 105.534 35.6515 104.88 36.0966 104.287C36.5362 103.694 36.9703 103.122 37.3934 102.584C37.8165 102.04 38.2506 101.496 38.6902 100.957C39.1298 100.413 39.6079 99.8363 40.1134 99.2264C40.7563 99.4627 41.4102 99.7375 42.0751 100.04C42.7345 100.347 43.3554 100.677 43.9324 101.034C44.5093 101.391 45.0094 101.77 45.4325 102.177C45.8556 102.584 46.1359 103.023 46.2732 103.501C47.1579 102.314 47.9877 101.221 48.7679 100.215C49.5482 99.21 50.4164 98.1385 51.3671 96.9847M51.3671 95.8857C51.0428 95.8857 50.7296 96.0286 50.5208 96.2869C49.5702 97.4462 48.6855 98.5396 47.9052 99.5451C47.4162 100.177 46.8997 100.847 46.3666 101.556C46.3117 101.501 46.2567 101.446 46.2018 101.391C45.7237 100.93 45.1578 100.501 44.5148 100.106C43.9049 99.7265 43.24 99.3748 42.5422 99.0506C41.8553 98.7319 41.1684 98.4517 40.5035 98.2045C40.3771 98.1605 40.2508 98.1385 40.1244 98.1385C39.8057 98.1385 39.4925 98.2759 39.2782 98.5341C38.7671 99.1495 38.2891 99.732 37.844 100.276C37.3989 100.82 36.9593 101.375 36.5307 101.919C36.1021 102.468 35.6625 103.051 35.2174 103.644C34.7778 104.238 34.2887 104.886 33.7502 105.595C33.5249 105.891 33.4645 106.282 33.5909 106.633C33.7173 106.985 34.014 107.249 34.3767 107.331C34.7393 107.413 35.1789 107.578 35.6845 107.814C36.2175 108.067 36.745 108.353 37.2505 108.666C37.767 108.985 38.2506 109.32 38.7012 109.655C39.1518 109.99 39.5199 110.287 39.8002 110.54C40.0035 110.721 40.2618 110.82 40.531 110.82C41.2673 110.82 42.0531 110.584 42.8609 110.111C43.5807 109.694 44.2676 109.166 44.9105 108.551C45.5479 107.935 46.0974 107.26 46.5535 106.54C46.7678 106.199 46.9491 105.864 47.0975 105.534C47.2074 105.578 47.3173 105.633 47.4272 105.688C47.9052 105.924 48.3778 106.194 48.8394 106.479C49.2955 106.765 49.7076 107.051 50.0647 107.325C50.4164 107.6 50.7022 107.847 50.9055 108.051C51.1143 108.26 51.389 108.375 51.6803 108.375C52.4551 108.375 53.2353 108.144 54.0046 107.683C54.6915 107.271 55.3289 106.732 55.8949 106.089C56.4499 105.457 56.9115 104.759 57.2576 104.029C57.6313 103.237 57.8236 102.463 57.8236 101.726C57.8236 100.99 57.5983 100.243 57.1477 99.5836C56.7631 99.0122 56.2576 98.4902 55.6586 98.0286C55.0981 97.6001 54.4717 97.2044 53.7848 96.8528C53.1199 96.5121 52.4386 96.2099 51.7517 95.9572C51.6253 95.9132 51.4989 95.8912 51.3725 95.8912L51.3671 95.8857Z" fill="url(#paint15_linear_1974_1454)"/>
<path d="M140.484 14.6761C141.127 14.9123 141.764 15.1871 142.391 15.4893C143.017 15.797 143.589 16.1431 144.094 16.5332C144.605 16.9233 145.017 17.3574 145.342 17.83C145.666 18.3025 145.825 18.83 145.825 19.4069C145.825 19.9838 145.682 20.5772 145.391 21.1871C145.1 21.797 144.748 22.385 144.32 22.9454C143.891 23.5059 143.435 24.0224 142.946 24.5004C142.451 24.9729 142.006 25.3465 141.594 25.6213C141.358 25.3136 140.99 24.9674 140.501 24.5773C140.006 24.1872 139.457 23.8026 138.847 23.4344C138.237 23.0608 137.588 22.7201 136.912 22.4179C136.231 22.1102 135.588 21.874 134.978 21.7036C135.522 20.9893 136.022 20.33 136.478 19.7201C136.934 19.1102 137.385 18.5223 137.83 17.9618C138.27 17.4014 138.704 16.8574 139.127 16.3354C139.55 15.8079 140.001 15.2585 140.479 14.6816M140.479 13.5826C140.154 13.5826 139.841 13.7255 139.632 13.9837C139.154 14.5662 138.704 15.1156 138.275 15.6486C137.847 16.1761 137.412 16.7255 136.967 17.286C136.522 17.8519 136.061 18.4508 135.605 19.0607C135.148 19.6706 134.648 20.33 134.11 21.0388C133.89 21.33 133.824 21.7091 133.945 22.0553C134.06 22.4014 134.341 22.6652 134.692 22.7641C135.247 22.9179 135.846 23.1377 136.473 23.4179C137.105 23.7037 137.715 24.0224 138.286 24.374C138.858 24.7202 139.374 25.0828 139.83 25.4454C140.352 25.863 140.616 26.1433 140.742 26.3026C140.957 26.5773 141.281 26.7257 141.611 26.7257C141.819 26.7257 142.034 26.6652 142.22 26.5389C142.688 26.2257 143.177 25.8191 143.726 25.2971C144.259 24.7861 144.759 24.2202 145.215 23.6158C145.682 23.0004 146.083 22.341 146.402 21.6652C146.759 20.9069 146.941 20.1542 146.941 19.4124C146.941 18.6157 146.715 17.8739 146.265 17.2146C145.88 16.6431 145.375 16.1211 144.776 15.6596C144.21 15.2255 143.572 14.8354 142.88 14.5002C142.22 14.1816 141.545 13.8903 140.869 13.6431C140.742 13.5991 140.616 13.5771 140.49 13.5771L140.479 13.5826Z" fill="url(#paint16_linear_1974_1454)"/>
<path d="M194.653 1.09892C194.736 1.09892 194.818 1.10991 194.906 1.13738C194.126 4.4616 192.944 7.36274 191.367 9.8408C189.79 12.3189 187.982 14.3738 185.944 16.0002C183.905 17.6266 181.746 18.8519 179.454 19.6651C177.163 20.4783 174.948 20.8849 172.811 20.8849C172.064 20.8849 171.404 20.808 170.827 20.6541C170.25 20.5003 169.706 20.33 169.201 20.1431C168.69 19.9563 168.184 19.786 167.673 19.6321C167.162 19.4783 166.624 19.4014 166.047 19.4014C164.86 19.4014 163.783 19.6816 162.816 20.242C161.848 20.8025 161.008 21.5717 160.293 22.5608C160.024 22.9344 159.76 23.2421 159.502 23.4784C159.304 23.6652 159.068 23.7531 158.799 23.7531C158.722 23.7531 158.639 23.7476 158.557 23.7311C158.76 22.4728 159.216 21.0662 159.931 19.5058C160.645 17.9453 161.524 16.4673 162.579 15.0771C163.634 13.687 164.821 12.5167 166.146 11.5661C167.47 10.6155 168.86 10.143 170.322 10.143C171.168 10.143 171.838 10.1925 172.333 10.2968C172.827 10.4012 173.311 10.5166 173.784 10.654C174.256 10.7914 174.8 10.9067 175.41 11.0111C176.02 11.1155 176.872 11.165 177.954 11.165C179.449 11.165 180.943 10.9507 182.433 10.5276C183.927 10.1045 185.361 9.51112 186.735 8.74738C188.109 7.98363 189.373 7.06054 190.527 5.97261C191.681 4.88468 192.664 3.68137 193.477 2.35718C193.648 2.08794 193.835 1.79123 194.038 1.46705C194.192 1.2198 194.395 1.09892 194.648 1.09892M194.653 0C194.016 0 193.472 0.313191 193.115 0.879133C192.911 1.20331 192.725 1.50002 192.554 1.77475C191.79 3.01653 190.856 4.1594 189.779 5.1704C188.697 6.1869 187.493 7.06603 186.208 7.78582C184.911 8.50561 183.543 9.07156 182.141 9.47266C180.751 9.86827 179.344 10.0661 177.96 10.0661C176.938 10.0661 176.141 10.0221 175.597 9.92871C175.031 9.8353 174.52 9.72541 174.091 9.59904C173.591 9.45618 173.08 9.3298 172.564 9.2254C171.992 9.11002 171.261 9.04958 170.327 9.04958C168.64 9.04958 167.019 9.59904 165.514 10.6815C164.107 11.6925 162.827 12.9507 161.717 14.4233C160.623 15.8738 159.689 17.4343 158.947 19.0607C158.194 20.7036 157.705 22.2201 157.485 23.5663C157.392 24.1597 157.782 24.7146 158.376 24.8245C158.524 24.852 158.672 24.863 158.81 24.863C159.359 24.863 159.859 24.6652 160.26 24.2915C160.563 24.0058 160.876 23.6487 161.189 23.2201C161.81 22.363 162.541 21.6871 163.371 21.2091C164.173 20.742 165.052 20.5168 166.052 20.5168C166.519 20.5168 166.959 20.5772 167.365 20.6981C167.854 20.8464 168.344 21.0058 168.833 21.1871C169.371 21.3849 169.954 21.5662 170.558 21.7256C171.223 21.9014 171.987 21.9893 172.827 21.9893C175.08 21.9893 177.443 21.5552 179.839 20.7036C182.235 19.8519 184.526 18.5607 186.647 16.8629C188.768 15.165 190.675 13.0057 192.312 10.4342C193.95 7.86275 195.186 4.81875 195.994 1.39013C196.131 0.813198 195.785 0.236267 195.214 0.0769242C195.016 0.0274729 194.835 0 194.653 0Z" fill="url(#paint17_linear_1974_1454)"/>
<path d="M209.489 32.9895C210.132 33.2258 210.77 33.5005 211.396 33.8027C212.023 34.1104 212.594 34.4566 213.1 34.8467C213.611 35.2368 214.023 35.6709 214.347 36.1434C214.671 36.616 214.831 37.1434 214.831 37.7204C214.831 38.2973 214.688 38.8907 214.396 39.5006C214.105 40.1105 213.754 40.6984 213.325 41.2589C212.902 41.8193 212.44 42.3358 211.951 42.8139C211.457 43.2864 211.012 43.66 210.599 43.9347C210.363 43.6271 209.995 43.2809 209.506 42.8908C209.011 42.5007 208.462 42.116 207.852 41.7479C207.242 41.3743 206.594 41.0336 205.918 40.7314C205.236 40.4237 204.593 40.1874 203.984 40.0171C204.528 39.3028 205.028 38.6435 205.484 38.0336C205.94 37.4237 206.39 36.8357 206.835 36.2753C207.275 35.7149 207.709 35.1709 208.132 34.6489C208.555 34.1214 209.006 33.572 209.484 32.995M209.484 31.8961C209.16 31.8961 208.847 32.039 208.638 32.2972C208.16 32.8796 207.709 33.4291 207.28 33.9621C206.852 34.4896 206.418 35.039 205.973 35.5995C205.528 36.1654 205.066 36.7643 204.61 37.3742C204.154 37.9841 203.654 38.6435 203.115 39.3523C202.896 39.6435 202.83 40.0226 202.95 40.3688C203.071 40.7149 203.346 40.9787 203.698 41.0776C204.253 41.2314 204.852 41.4512 205.478 41.7314C206.11 42.0171 206.72 42.3358 207.291 42.6875C207.863 43.0336 208.379 43.3963 208.836 43.7589C209.358 44.1765 209.621 44.4567 209.748 44.6161C209.962 44.8908 210.286 45.0392 210.616 45.0392C210.825 45.0392 211.039 44.9787 211.226 44.8523C211.693 44.5392 212.182 44.1326 212.731 43.6106C213.264 43.0996 213.765 42.5336 214.221 41.9292C214.688 41.3138 215.089 40.6545 215.408 39.9787C215.765 39.2204 215.946 38.4676 215.946 37.7259C215.946 36.9292 215.721 36.1874 215.27 35.528C214.886 34.9566 214.38 34.4346 213.781 33.9731C213.215 33.539 212.578 33.1489 211.885 32.8137C211.226 32.495 210.55 32.2038 209.874 31.9566C209.748 31.9126 209.621 31.8906 209.495 31.8906L209.484 31.8961Z" fill="url(#paint18_linear_1974_1454)"/>
<path d="M54.2352 40.6985C54.3287 40.6985 54.4331 40.7095 54.5375 40.726C54.4276 42.7425 54.1528 44.6162 53.7022 46.347C53.2517 48.0778 52.6472 49.5888 51.8944 50.8855C51.1361 52.1822 50.2349 53.1987 49.1909 53.9405C48.1468 54.6767 46.9599 55.0504 45.6247 55.0504C45.5148 55.9845 45.3609 57.0669 45.1631 58.2922C44.9653 59.5175 44.7235 60.7757 44.4323 62.0725C44.141 63.3692 43.8388 64.6384 43.5146 65.8802C43.1904 67.122 42.8497 68.2484 42.487 69.2594C41.3716 72.4627 39.9209 75.5507 38.135 78.5232C36.3547 81.4958 34.2556 84.1222 31.8433 86.4135C29.431 88.7047 26.711 90.5289 23.6833 91.897C20.6556 93.2652 17.3641 93.952 13.7979 93.952C11.5669 93.952 9.63821 93.5289 8.0172 92.6828C6.39619 91.8366 5.07191 90.7102 4.04435 89.3036C3.01679 87.897 2.26398 86.2761 1.77493 84.4409C1.29138 82.6057 1.06608 80.6771 1.09905 78.6606C1.13752 76.6441 1.36831 74.655 1.80241 72.6935C2.23651 70.7319 2.80249 68.8033 3.50584 66.9132C4.2092 65.023 5.02795 63.1659 5.96209 61.3472C6.89623 59.5285 7.89082 57.7702 8.93486 56.0779C9.29752 56.3306 9.52282 56.6658 9.61074 57.0779C9.69866 57.49 9.62173 57.968 9.36896 58.512C8.32492 60.8527 7.42375 63.012 6.66544 64.9956C5.90714 66.9791 5.53348 69.0286 5.53348 71.155C5.53348 72.633 5.76976 74.0177 6.23684 75.3144C6.70391 76.6111 7.44573 77.7375 8.4513 78.6936C9.45688 79.6496 10.7372 80.3969 12.2868 80.9354C13.8364 81.4738 15.6717 81.7431 17.7982 81.7431C20.716 81.7431 23.3921 81.3639 25.8208 80.6112C28.2496 79.8529 30.4146 78.7815 32.3049 77.3968C34.1952 76.0122 35.8326 74.3693 37.2229 72.4792C38.6131 70.5891 39.7341 68.5066 40.6023 66.2373C41.3221 64.4022 41.7727 62.6384 41.954 60.9406C42.1354 59.2482 42.2233 57.7153 42.2233 56.3471C42.2233 56.0229 42.2068 55.5614 42.1683 54.968C42.1299 54.3745 42.1079 53.7591 42.0859 53.1328C42.0639 52.5064 42.042 51.924 42.0035 51.402C41.965 50.88 41.9485 50.5283 41.9485 50.347C41.9485 49.0118 42.1464 48.1602 42.542 47.781C42.9376 47.4019 43.3882 47.2151 43.8937 47.2151C44.2894 47.2151 44.7235 47.27 45.1906 47.3744C45.6576 47.4843 46.1632 47.5338 46.7017 47.5338C48.3227 47.5338 49.6799 47.0667 50.7789 46.1272C51.8779 45.1931 52.6417 43.803 53.0758 41.9678C53.1857 41.5007 53.3451 41.1601 53.5594 40.9403C53.7187 40.7809 53.944 40.6985 54.2298 40.6985M54.2298 39.5996C53.5044 39.5996 53.0428 39.9073 52.7846 40.1656C52.4164 40.5337 52.1637 41.0447 52.0043 41.7205C51.6306 43.3139 50.9767 44.5118 50.0646 45.292C49.1634 46.0612 48.0644 46.4349 46.6962 46.4349C46.2401 46.4349 45.817 46.3909 45.4323 46.303C44.8828 46.1766 44.3663 46.1107 43.8883 46.1107C43.108 46.1107 42.3771 46.4129 41.7782 46.9843C41.1408 47.5942 40.844 48.6602 40.844 50.347C40.844 50.5558 40.8605 50.9185 40.899 51.4734C40.932 51.9789 40.9594 52.5448 40.9759 53.1602C40.9924 53.7976 41.0199 54.4295 41.0583 55.0339C41.0913 55.6053 41.1078 56.0449 41.1078 56.3471C41.1078 57.6713 41.0199 59.1768 40.844 60.8252C40.6737 62.4131 40.2451 64.1 39.5637 65.8362C38.734 68.0121 37.646 70.0231 36.3217 71.8253C35.0084 73.6166 33.4314 75.1935 31.64 76.5067C29.8541 77.8144 27.7825 78.8419 25.4802 79.5562C23.1668 80.276 20.5787 80.6386 17.7817 80.6386C15.7926 80.6386 14.0562 80.3859 12.633 79.8914C11.2372 79.4024 10.0833 78.732 9.18762 77.8914C8.30843 77.0617 7.66003 76.0672 7.24791 74.9408C6.8248 73.7704 6.61049 72.4957 6.61049 71.155C6.61049 69.1769 6.96766 67.2319 7.67102 65.3857C8.41833 63.4351 9.3195 61.2702 10.3471 58.957C10.6932 58.2153 10.8031 57.4955 10.6603 56.8416C10.5119 56.1603 10.1273 55.5833 9.5393 55.1768C9.35247 55.0449 9.13268 54.9789 8.90738 54.9789C8.83595 54.9789 8.75902 54.9844 8.68758 55.0009C8.39086 55.0614 8.13259 55.2427 7.97324 55.5009C6.91821 57.2097 5.90714 59.0065 4.96201 60.8417C4.01138 62.6933 3.16516 64.6055 2.45081 66.5286C1.73647 68.4572 1.14851 70.4517 0.703418 72.4572C0.258327 74.4847 0.011054 76.5617 -0.0219157 78.6441C-0.0603804 80.754 0.181397 82.798 0.692428 84.7266C1.20895 86.6882 2.0332 88.4464 3.13768 89.9575C4.25865 91.4904 5.72581 92.7377 7.48969 93.6608C9.25906 94.5839 11.3801 95.0564 13.7814 95.0564C17.4905 95.0564 20.9688 94.3311 24.1229 92.908C27.244 91.4959 30.0904 89.5838 32.5851 87.2212C35.0579 84.875 37.2394 82.1442 39.0637 79.1002C40.877 76.0781 42.3716 72.8913 43.5091 69.633C43.8773 68.6055 44.2289 67.4407 44.5586 66.1714C44.8828 64.9241 45.196 63.6274 45.4873 62.3252C45.7785 61.012 46.0258 59.7208 46.2291 58.479C46.3665 57.6218 46.4874 56.8251 46.5808 56.0998C47.7567 55.9515 48.8337 55.5339 49.8008 54.8526C50.9712 54.0284 51.9823 52.8855 52.8176 51.4569C53.6198 50.0778 54.2682 48.4624 54.7408 46.6437C55.2079 44.8524 55.4991 42.8854 55.6145 40.8084C55.642 40.248 55.2518 39.759 54.6968 39.6655C54.532 39.6381 54.3671 39.6216 54.2133 39.6216L54.2298 39.5996Z" fill="url(#paint19_linear_1974_1454)"/>
<path d="M153.364 28.7256C154.381 28.7256 155.221 28.9949 155.886 29.5388C156.546 30.0828 157.084 30.7696 157.491 31.5993C157.897 32.429 158.189 33.3191 158.359 34.2697C158.529 35.2202 158.612 36.1049 158.612 36.9181C158.612 39.6324 158.051 42.3137 156.93 44.9621C155.809 47.6105 154.249 50.182 152.249 52.6765C150.249 55.1711 147.853 57.5557 145.072 59.8305C142.286 62.1052 139.215 64.2426 135.857 66.2426C132.494 68.2427 128.829 70.1548 124.862 71.968C120.889 73.7812 116.63 75.3801 112.081 76.7538C107.531 78.1274 102.662 79.2154 97.4695 80.0121C92.2768 80.8088 86.7763 81.2099 80.9736 81.2099C78.935 81.2099 76.7975 81.1275 74.561 80.9571C72.3191 80.7868 70.1321 80.5011 67.9946 80.089C65.857 79.6824 63.8294 79.1494 61.9117 78.4846C59.9939 77.8252 58.3235 76.9846 56.8948 75.9626C56.6255 75.7263 56.3178 75.6054 55.9771 75.6054C55.4001 76.7263 54.7627 78.0725 54.0704 79.6549C53.378 81.2374 52.5922 82.7539 51.7295 84.2099C50.8613 85.6715 49.8722 86.9243 48.7512 87.9792C47.6303 89.0342 46.3609 89.6056 44.9322 89.71C44.152 89.7759 43.4156 89.8639 42.7178 89.9628C42.0199 90.0617 41.3166 90.1825 40.6022 90.3199C40.333 89.5726 40.355 88.9627 40.6792 88.4847C41.0034 88.0122 41.3495 87.6385 41.7232 87.3638C44.7454 85.0561 47.1467 82.8088 48.9271 80.6165C50.7074 78.4296 52.0757 76.1768 53.0263 73.8691C53.1307 73.5614 53.2956 73.0944 53.5373 72.468C53.7736 71.8416 54.0649 71.1603 54.4055 70.4295C54.7462 69.6987 55.1364 68.9515 55.576 68.1877C56.0156 67.424 56.4936 66.7701 56.9992 66.2262C57.5047 65.6822 58.0487 65.2866 58.6257 65.0283C58.9059 64.9075 59.1917 64.8415 59.4884 64.8415C59.8016 64.8415 60.1258 64.913 60.461 65.0503C67.7253 68.1712 75.4292 69.7317 83.5728 69.7317C88.8314 69.7317 93.7824 69.4954 98.4146 69.0174C103.047 68.5449 107.454 67.8361 111.624 66.902C115.801 65.9679 119.768 64.7976 123.538 63.391C127.307 61.9843 130.956 60.347 134.483 58.4788C137.978 56.6106 141.44 54.4732 144.869 52.0666C148.298 49.6545 151.507 46.8907 154.491 43.7698C154.425 43.3632 154.304 43.0061 154.133 42.6984C153.963 42.3907 153.639 42.1709 153.166 42.039C152.419 42.4456 151.65 42.6764 150.847 42.7258C150.721 42.7313 150.595 42.7368 150.474 42.7368C149.82 42.7368 149.215 42.6214 148.655 42.3962C147.996 42.1269 147.452 41.7368 147.028 41.2258C146.605 40.7148 146.391 40.1049 146.391 39.3906C146.391 38.7478 146.561 38.0994 146.902 37.4565C147.342 36.7422 147.71 36.1323 147.996 35.6213C148.287 35.1103 148.545 34.6213 148.787 34.1433C149.023 33.6708 149.27 33.1488 149.523 32.5883C149.776 32.0279 150.111 31.3246 150.518 30.4729C150.825 29.83 151.232 29.3685 151.738 29.0993C152.243 28.83 152.787 28.6927 153.364 28.6927M153.364 27.5938C152.606 27.5938 151.886 27.7751 151.216 28.1322C150.496 28.5168 149.924 29.1487 149.518 30.0059C149.111 30.852 148.776 31.5718 148.518 32.1323C148.27 32.6762 148.029 33.1872 147.798 33.6488C147.572 34.1048 147.314 34.5829 147.034 35.0774C146.754 35.5719 146.391 36.1763 145.962 36.8741C145.951 36.8961 145.935 36.9181 145.924 36.94C145.501 37.7422 145.287 38.5664 145.287 39.3851C145.287 40.3577 145.589 41.2093 146.177 41.9236C146.715 42.572 147.408 43.0665 148.232 43.4072C148.919 43.6874 149.672 43.8302 150.463 43.8302C150.611 43.8302 150.754 43.8302 150.908 43.8138C151.683 43.7643 152.441 43.572 153.172 43.2478C153.205 43.3083 153.232 43.3742 153.26 43.4401C150.452 46.3193 147.413 48.9182 144.221 51.16C140.847 53.5337 137.39 55.6656 133.95 57.5063C130.483 59.3414 126.846 60.9733 123.136 62.358C119.433 63.7426 115.476 64.9075 111.366 65.8251C107.251 66.7427 102.849 67.446 98.2827 67.9185C93.7109 68.3855 88.7545 68.6273 83.5563 68.6273C75.5996 68.6273 67.9671 67.0833 60.8786 64.0338C60.406 63.836 59.9335 63.7316 59.4719 63.7316C59.0268 63.7316 58.5872 63.825 58.1696 64.0118C57.4607 64.325 56.7904 64.8141 56.1804 65.4624C55.6144 66.0668 55.0869 66.7921 54.6034 67.6218C54.1473 68.4075 53.7407 69.1932 53.389 69.946C53.0373 70.6988 52.7406 71.4076 52.4933 72.0559C52.257 72.6768 52.0922 73.1383 51.9823 73.4625C51.0756 75.6494 49.7568 77.8142 48.0589 79.8967C46.339 82.0066 43.9761 84.2154 41.0418 86.4627C40.5857 86.7924 40.1461 87.2594 39.756 87.8364C39.3933 88.3748 39.0581 89.2979 39.5582 90.6606C39.7175 91.1001 40.1352 91.3859 40.5912 91.3859C40.6572 91.3859 40.7286 91.3804 40.8 91.3639C41.4924 91.232 42.1903 91.1166 42.8661 91.0177C43.5365 90.9188 44.2619 90.8364 45.0147 90.7705C46.6741 90.6496 48.1853 89.9683 49.4931 88.7485C50.6855 87.6331 51.7515 86.2814 52.6636 84.7429C53.5483 83.2539 54.3561 81.6824 55.0649 80.067C55.5705 78.9241 56.043 77.8967 56.4881 76.9955C57.9388 77.9956 59.6422 78.8362 61.5435 79.4901C63.4997 80.1659 65.5988 80.7209 67.7803 81.133C69.9508 81.5451 72.1982 81.8418 74.4731 82.0121C76.7315 82.1824 78.9185 82.2703 80.9736 82.2703C86.8038 82.2703 92.4141 81.8637 97.6343 81.0615C102.855 80.2593 107.822 79.1549 112.399 77.7703C116.971 76.3856 121.318 74.7593 125.318 72.935C129.307 71.1108 133.044 69.1658 136.423 67.1547C139.814 65.1327 142.957 62.9459 145.77 60.6492C148.6 58.3359 151.067 55.8744 153.111 53.3359C155.167 50.7754 156.799 48.094 157.952 45.3632C159.123 42.594 159.722 39.7423 159.722 36.8906C159.722 36.0169 159.628 35.0609 159.453 34.0499C159.266 33.0059 158.942 32.0059 158.491 31.0883C158.018 30.1158 157.381 29.3026 156.595 28.6597C155.732 27.9564 154.65 27.5938 153.381 27.5938H153.364Z" fill="url(#paint20_linear_1974_1454)"/>
<path d="M172.712 31.8357C172.915 32.0061 173.102 32.3302 173.273 32.8028C173.443 33.2753 173.393 33.9072 173.119 34.6874C172.575 36.149 172.179 37.8688 171.921 39.8523C171.668 41.8359 171.47 43.8908 171.333 46.0118C171.195 48.1327 171.086 50.2261 171.003 52.2976C170.921 54.369 170.805 56.2152 170.673 57.8471C170.536 59.4076 170.272 61.1054 169.882 62.9406C169.492 64.7758 168.992 66.4791 168.382 68.056C167.772 69.633 167.069 70.9517 166.267 72.0011C165.47 73.0506 164.613 73.5781 163.695 73.5781C164.003 72.7649 164.255 71.7264 164.459 70.4736C164.662 69.2154 164.821 67.8527 164.942 66.3747C165.063 64.8966 165.157 63.3527 165.222 61.7428C165.288 60.1328 165.332 58.5614 165.349 57.0339C165.365 55.5064 165.376 54.0833 165.376 52.7591V49.347C165.376 48.3964 165.47 47.4898 165.657 46.6217C165.843 45.7535 166.091 44.9238 166.393 44.1271C166.701 43.3304 167.036 42.5502 167.409 41.7864C167.783 41.0227 168.173 40.2479 168.58 39.4677C169.052 38.5171 169.514 37.6545 169.954 36.8688C170.393 36.0885 170.8 35.3578 171.174 34.6819C171.443 34.2094 171.701 33.7314 171.937 33.2588C172.174 32.7863 172.432 32.3083 172.701 31.8357M172.701 30.7368C172.635 30.7368 172.569 30.7423 172.509 30.7533C172.19 30.8082 171.91 31.0061 171.75 31.2918C171.47 31.7808 171.201 32.2808 170.959 32.7698C170.734 33.2259 170.487 33.6874 170.223 34.1435C169.844 34.8358 169.437 35.5611 168.998 36.3358C168.547 37.127 168.08 38.0171 167.596 38.9842C167.195 39.7534 166.8 40.5392 166.42 41.3084C166.036 42.0996 165.679 42.9128 165.365 43.7425C165.041 44.5887 164.777 45.4843 164.58 46.3964C164.376 47.336 164.277 48.3305 164.277 49.3525V52.7646C164.277 54.0778 164.266 55.5119 164.25 57.0284C164.233 58.5394 164.189 60.1109 164.123 61.7043C164.058 63.2922 163.964 64.8362 163.849 66.2978C163.733 67.7373 163.574 69.089 163.376 70.3088C163.184 71.4846 162.948 72.4627 162.667 73.2044C162.541 73.5396 162.59 73.9187 162.794 74.2155C162.997 74.5122 163.338 74.688 163.695 74.688C164.97 74.688 166.129 74.0122 167.14 72.677C167.997 71.5506 168.756 70.133 169.404 68.4626C170.031 66.8362 170.558 65.0615 170.954 63.1768C171.349 61.3087 171.624 59.5504 171.761 57.9515C171.899 56.3086 172.009 54.4295 172.097 52.3525C172.179 50.2975 172.289 48.1931 172.426 46.0887C172.558 44.0007 172.756 41.9513 173.003 40.0007C173.245 38.1051 173.63 36.4512 174.141 35.0775C174.509 34.0226 174.558 33.1654 174.3 32.4401C174.058 31.7588 173.773 31.3028 173.41 31.0006C173.212 30.8357 172.959 30.7478 172.707 30.7478L172.701 30.7368Z" fill="url(#paint21_linear_1974_1454)"/>
<path d="M182.097 64.1437C181.927 64.413 181.8 64.7866 181.718 65.2646C181.636 65.7371 181.559 66.1328 181.487 66.435C181.114 68.2317 180.734 69.946 180.344 71.5779C179.954 73.2098 179.537 74.7318 179.097 76.1604C178.756 77.2483 178.361 78.4846 177.899 79.8747C177.443 81.2648 176.866 82.5726 176.168 83.7923C175.47 85.0121 174.63 86.0506 173.646 86.8968C172.662 87.743 171.492 88.1715 170.135 88.1715C169.728 88.1715 169.228 88.232 168.635 88.3474C168.041 88.4682 167.42 88.6111 166.777 88.7814C166.134 88.9518 165.502 89.1221 164.892 89.2924C164.283 89.4628 163.755 89.6166 163.315 89.7485C163.315 88.9353 163.519 88.2704 163.925 87.7649C164.332 87.2539 164.722 86.8803 165.096 86.644C166.722 85.5946 168.228 84.5286 169.602 83.4627C170.975 82.3912 172.217 81.2374 173.316 80.0011C174.421 78.7648 175.404 77.4022 176.267 75.9296C177.135 74.4516 177.888 72.7977 178.531 70.968C178.767 70.3581 178.982 69.7317 179.168 69.0834C179.355 68.4405 179.531 67.7921 179.701 67.1493C179.734 66.946 179.811 66.6767 179.932 66.3361C180.053 65.9954 180.201 65.6657 180.388 65.3415C180.575 65.0174 180.806 64.7371 181.075 64.5009C181.344 64.2646 181.685 64.1437 182.092 64.1437M182.092 63.0448C181.421 63.0448 180.817 63.2646 180.35 63.6712C179.987 63.9844 179.679 64.3635 179.438 64.7866C179.218 65.1657 179.036 65.5613 178.894 65.9679C178.762 66.3416 178.674 66.6547 178.63 66.9075C178.465 67.5229 178.295 68.1493 178.113 68.7702C177.937 69.3801 177.734 69.9845 177.509 70.5614C177.509 70.5724 177.498 70.5834 177.498 70.5944C176.877 72.3526 176.146 73.957 175.322 75.3692C174.498 76.7758 173.547 78.089 172.497 79.2648C171.442 80.4461 170.245 81.567 168.926 82.589C167.585 83.633 166.09 84.688 164.497 85.7155C164.024 86.0177 163.552 86.4627 163.063 87.0726C162.497 87.7814 162.211 88.677 162.211 89.743C162.211 90.0891 162.376 90.4188 162.656 90.6276C162.848 90.7705 163.079 90.8419 163.31 90.8419C163.42 90.8419 163.53 90.8254 163.634 90.7924C164.063 90.6606 164.585 90.5067 165.184 90.3419C165.788 90.1716 166.415 90.0067 167.052 89.8364C167.673 89.6716 168.277 89.5342 168.849 89.4188C169.371 89.3144 169.799 89.2595 170.135 89.2595C171.756 89.2595 173.179 88.743 174.366 87.721C175.443 86.7924 176.366 85.655 177.124 84.3253C177.855 83.0451 178.465 81.6605 178.943 80.2044C179.399 78.8143 179.806 77.5615 180.146 76.4736C180.592 75.0285 181.02 73.4625 181.416 71.8197C181.806 70.1878 182.196 68.446 182.57 66.6438C182.636 66.3416 182.718 65.9295 182.806 65.4404C182.877 65.0393 182.971 64.8305 183.026 64.7316C183.141 64.5558 183.207 64.347 183.207 64.1272C183.207 63.5228 182.718 63.0283 182.108 63.0283L182.092 63.0448Z" fill="url(#paint22_linear_1974_1454)"/>
<path d="M196.198 40.3191C196.401 40.4895 196.588 40.8136 196.758 41.2862C196.928 41.7587 196.879 42.3906 196.604 43.1708C196.06 44.6324 195.665 46.3522 195.406 48.3357C195.154 50.3193 194.956 52.3742 194.818 54.4952C194.681 56.6161 194.571 58.7095 194.489 60.781C194.406 62.8524 194.291 64.6986 194.159 66.3305C194.022 67.891 193.758 69.5888 193.368 71.424C192.978 73.2592 192.478 74.9625 191.868 76.5394C191.258 78.1164 190.554 79.4351 189.752 80.4845C188.955 81.534 188.098 82.0615 187.18 82.0615C187.488 81.2483 187.741 80.2098 187.944 78.957C188.147 77.6988 188.307 76.3361 188.428 74.8581C188.549 73.38 188.642 71.8361 188.708 70.2261C188.774 68.6162 188.818 67.0448 188.834 65.5173C188.851 63.9898 188.862 62.5667 188.862 61.2425V57.8304C188.862 56.8798 188.955 55.9732 189.142 55.1051C189.329 54.2369 189.576 53.4072 189.878 52.6105C190.186 51.8138 190.521 51.0336 190.895 50.2698C191.269 49.5061 191.659 48.7313 192.065 47.9511C192.538 47.0005 193 46.1379 193.439 45.3522C193.879 44.5719 194.285 43.8412 194.659 43.1653C194.928 42.6928 195.187 42.2148 195.423 41.7422C195.659 41.2697 195.917 40.7917 196.187 40.3191M196.187 39.2202C196.121 39.2202 196.055 39.2257 195.989 39.2367C195.67 39.2916 195.39 39.4895 195.23 39.7752C194.95 40.2642 194.681 40.7642 194.439 41.2532C194.214 41.7093 193.967 42.1708 193.703 42.6269C193.324 43.3192 192.917 44.0445 192.477 44.8192C192.027 45.6104 191.56 46.5005 191.076 47.4676C190.675 48.2368 190.274 49.0226 189.9 49.7918C189.516 50.583 189.159 51.4017 188.845 52.2259C188.521 53.0721 188.257 53.9677 188.06 54.8798C187.856 55.8194 187.757 56.8139 187.757 57.8359V61.248C187.757 62.5612 187.746 63.9953 187.73 65.5118C187.713 67.0228 187.669 68.5943 187.603 70.1877C187.538 71.7756 187.444 73.3196 187.329 74.7812C187.213 76.2207 187.054 77.5724 186.856 78.7922C186.664 79.968 186.428 80.9461 186.147 81.6879C186.021 82.023 186.07 82.4021 186.274 82.6988C186.477 82.9956 186.818 83.1714 187.175 83.1714C188.45 83.1714 189.609 82.4956 190.62 81.1604C191.477 80.034 192.236 78.6164 192.884 76.946C193.511 75.3196 194.033 73.5449 194.434 71.6602C194.829 69.7921 195.104 68.0338 195.241 66.4349C195.379 64.792 195.489 62.9129 195.577 60.8359C195.659 58.7809 195.769 56.6765 195.906 54.5721C196.038 52.4841 196.236 50.4347 196.483 48.4841C196.725 46.5885 197.11 44.9346 197.621 43.5609C197.989 42.506 198.038 41.6488 197.78 40.9235C197.538 40.2422 197.253 39.7862 196.89 39.484C196.692 39.3191 196.439 39.2312 196.187 39.2312V39.2202Z" fill="url(#paint23_linear_1974_1454)"/>
<path d="M225.985 77.331C226.156 77.4354 226.282 77.5617 226.364 77.7101C226.447 77.8639 226.491 78.1277 226.491 78.5013C226.491 78.842 226.32 79.3585 225.98 80.0563C225.639 80.7541 225.26 81.5178 224.837 82.3475C224.414 83.1772 224.029 84.0124 223.694 84.8421C223.359 85.6718 223.183 86.4135 223.183 87.0564C223.183 87.5289 223.265 87.9245 223.436 88.2267C223.606 88.5344 223.93 88.7707 224.403 88.941C224.507 88.5344 224.656 88.0839 224.859 87.5894C225.062 87.0949 225.265 86.6663 225.469 86.2926C226.963 86.8366 227.711 87.9905 227.711 89.7542C227.711 90.2652 227.606 90.8257 227.403 91.4356C227.2 92.0455 226.908 92.6169 226.535 93.1389C226.161 93.6664 225.722 94.1059 225.211 94.4631C224.699 94.8202 224.139 94.9961 223.529 94.9961C222.985 94.9961 222.518 94.8697 222.128 94.6169C221.738 94.3642 221.424 94.029 221.188 93.6224C220.952 93.2158 220.782 92.7653 220.677 92.2707C220.573 91.7762 220.523 91.3147 220.523 90.8696C220.523 89.7817 220.727 88.6223 221.133 87.3806C221.54 86.1443 222.023 84.9135 222.584 83.6882C223.144 82.4684 223.738 81.3036 224.364 80.1992C224.991 79.0947 225.529 78.1387 225.969 77.3255M225.969 76.2266C225.87 76.2266 225.776 76.2376 225.678 76.265C225.386 76.342 225.145 76.5398 225.002 76.8035C224.568 77.6057 224.029 78.5673 223.408 79.6607C222.765 80.7871 222.155 81.9904 221.584 83.2322C221.007 84.4849 220.507 85.7652 220.089 87.0399C219.65 88.3861 219.424 89.6718 219.424 90.8696C219.424 91.3861 219.485 91.9301 219.6 92.4905C219.727 93.0949 219.941 93.6609 220.238 94.1719C220.562 94.7268 220.996 95.1829 221.529 95.529C222.1 95.9027 222.771 96.0895 223.529 96.0895C224.364 96.0895 225.145 95.8422 225.837 95.3587C226.447 94.9301 226.98 94.3972 227.425 93.7708C227.859 93.1609 228.2 92.4905 228.436 91.7762C228.678 91.0564 228.799 90.3751 228.799 89.7487C228.799 86.9245 227.189 85.7432 225.837 85.2542C225.716 85.2102 225.584 85.1882 225.463 85.1882C225.09 85.1882 224.732 85.3805 224.529 85.7102C224.579 85.5619 224.639 85.408 224.699 85.2487C225.024 84.452 225.397 83.6388 225.804 82.8365C226.227 82.0014 226.617 81.2266 226.958 80.5288C227.381 79.6607 227.579 79.0123 227.579 78.4958C227.579 77.9189 227.496 77.5013 227.315 77.1716C227.134 76.8475 226.875 76.5837 226.54 76.3804C226.37 76.276 226.172 76.2266 225.974 76.2266H225.969Z" fill="url(#paint24_linear_1974_1454)"/>
<path d="M234.382 51.4181C235.569 51.5885 236.409 52.072 236.904 52.8687C237.398 53.6654 237.64 54.6105 237.64 55.6929C237.64 56.9841 237.387 58.2479 236.876 59.4842C236.365 60.7205 235.673 61.8359 234.788 62.8194C233.904 63.8029 232.86 64.5996 231.656 65.2095C230.453 65.8194 229.134 66.1271 227.711 66.1271C226.931 66.1271 226.227 66.0172 225.595 65.7975C225.051 65.6051 224.474 65.5117 223.864 65.5117C223.771 65.5117 223.678 65.5117 223.584 65.5172C221.584 65.5502 219.76 65.9568 218.111 66.737C216.463 67.5173 214.946 68.5118 213.556 69.7151C212.166 70.9184 210.885 72.2591 209.709 73.7371C208.539 75.2152 207.445 76.6822 206.423 78.1383C205.269 79.8032 204.022 81.479 202.681 83.1768C201.341 84.8746 199.89 86.4626 198.329 87.9351C196.769 89.4132 195.087 90.7209 193.29 91.8528C191.494 92.9901 189.576 93.8308 187.537 94.3748C187.131 94.5121 186.729 94.6056 186.339 94.655C185.949 94.7045 185.565 94.7484 185.196 94.7814C185.196 94.2374 185.301 93.7869 185.504 93.4297C185.707 93.0726 185.955 92.7868 186.24 92.5616C186.532 92.3418 186.806 92.1715 187.081 92.0506C187.35 91.9297 187.554 91.8363 187.691 91.7704C189.966 90.4791 191.999 88.9626 193.802 87.2153C195.598 85.4681 197.28 83.5999 198.84 81.6164C200.401 79.6328 201.896 77.5778 203.319 75.4569C204.742 73.336 206.204 71.2591 207.698 69.2206C209.121 67.2865 210.611 65.4513 212.155 63.7205C213.699 61.9897 215.303 60.4732 216.968 59.1655C218.633 57.8578 220.337 56.8303 222.084 56.083C223.831 55.3358 225.623 54.9621 227.458 54.9621C228.068 54.9621 228.579 55.0061 228.986 55.0885C229.392 55.1709 229.766 55.2753 230.107 55.3962C230.447 55.5171 230.794 55.616 231.151 55.7039C231.508 55.7863 231.942 55.8303 232.447 55.8303L234.382 51.4017M234.382 50.3027C233.948 50.3027 233.552 50.5555 233.376 50.9621L231.744 54.6929C231.618 54.6764 231.508 54.6599 231.403 54.6325C231.085 54.5555 230.772 54.4621 230.469 54.3577C230.085 54.2259 229.662 54.1105 229.211 54.0116C228.727 53.9127 228.15 53.8632 227.458 53.8632C225.485 53.8632 223.535 54.2698 221.655 55.072C219.826 55.8523 218.023 56.9402 216.292 58.2973C214.589 59.638 212.918 61.215 211.341 62.9842C209.781 64.7315 208.259 66.6107 206.825 68.5612C205.33 70.5997 203.846 72.7151 202.418 74.836C201.016 76.924 199.522 78.9735 197.983 80.9295C196.461 82.8691 194.796 84.7153 193.043 86.4186C191.329 88.089 189.356 89.556 187.186 90.7923C187.059 90.8528 186.883 90.9352 186.653 91.0341C186.301 91.1879 185.944 91.4022 185.587 91.6769C185.18 91.9846 184.839 92.3857 184.559 92.8693C184.262 93.3913 184.108 94.0286 184.108 94.7649C184.108 95.0726 184.24 95.3693 184.466 95.5781C184.669 95.7649 184.933 95.8638 185.207 95.8638C185.24 95.8638 185.273 95.8638 185.306 95.8638C185.691 95.8308 186.092 95.7869 186.493 95.7319C186.938 95.6715 187.4 95.5671 187.861 95.4133C189.983 94.8418 192.01 93.9517 193.889 92.7704C195.741 91.6 197.494 90.2374 199.099 88.7209C200.692 87.2153 202.192 85.5725 203.561 83.8417C204.907 82.1328 206.182 80.4185 207.341 78.7482C208.341 77.3141 209.429 75.8525 210.583 74.402C211.704 72.9844 212.951 71.6822 214.287 70.5283C215.594 69.3964 217.045 68.4458 218.595 67.7096C220.089 67.0008 221.782 66.6271 223.617 66.5942C223.628 66.5942 223.639 66.5942 223.65 66.5942C223.727 66.5942 223.804 66.5887 223.881 66.5887C224.359 66.5887 224.821 66.6656 225.244 66.814C225.985 67.0722 226.821 67.2096 227.722 67.2096C229.315 67.2096 230.81 66.8634 232.167 66.1766C233.486 65.5062 234.651 64.6161 235.618 63.5392C236.58 62.4677 237.349 61.237 237.904 59.8908C238.464 58.5226 238.75 57.1105 238.75 55.6819C238.75 54.3962 238.448 53.2478 237.849 52.2808C237.179 51.1984 236.069 50.539 234.547 50.3192C234.492 50.3137 234.442 50.3082 234.393 50.3082L234.382 50.3027Z" fill="url(#paint25_linear_1974_1454)"/>
<path d="M248.773 57.8305C249.724 57.8305 250.564 58.0338 251.295 58.4404C252.026 58.847 252.636 59.3964 253.131 60.0943C253.625 60.7921 253.988 61.5888 254.224 62.4844C254.46 63.3855 254.581 64.3416 254.581 65.3581C254.581 67.0889 254.35 68.9295 253.894 70.8801C253.438 72.8307 252.773 74.6384 251.911 76.3033C251.042 77.9681 249.993 79.3418 248.757 80.4297C247.52 81.5176 246.135 82.0561 244.608 82.0561C243.52 82.0561 242.641 81.677 241.959 80.9132C241.278 80.1495 240.943 79.0561 240.943 77.6275C240.943 76.4406 241.157 75.2153 241.58 73.9626C242.003 72.7043 242.69 71.2318 243.641 69.5339C243.503 69.501 243.317 69.4845 243.08 69.4845C242.844 69.4845 242.707 69.4021 242.674 69.2317C242.641 69.0614 242.674 68.8251 242.778 68.5174C242.882 68.2098 243.014 67.8746 243.185 67.501C243.355 67.1273 243.542 66.7372 243.745 66.3306C244.152 65.446 244.492 64.7207 244.762 64.1438C245.031 63.5668 245.273 63.0668 245.476 62.6437C245.679 62.2207 245.866 61.8141 246.037 61.4239C246.207 61.0338 246.41 60.5668 246.646 60.0228C246.987 59.3085 247.289 58.7646 247.564 58.3964C247.833 58.0228 248.246 57.836 248.784 57.836M246.289 76.7758C247.174 76.7758 248.037 76.5395 248.888 76.0615C249.735 75.589 250.312 74.8582 250.619 73.8747C250.35 72.5834 249.746 71.6164 248.812 70.9735C247.877 70.3307 246.646 69.9021 245.119 69.6988C244.949 70.0065 244.762 70.3416 244.558 70.7153C244.355 71.0889 244.168 71.479 243.998 71.8856C243.828 72.2922 243.674 72.6988 243.542 73.1054C243.404 73.512 243.339 73.8857 243.339 74.2263C243.339 75.0725 243.635 75.7099 244.229 76.1329C244.822 76.556 245.509 76.7703 246.289 76.7703M248.784 56.7316C247.647 56.7316 247.009 57.281 246.674 57.7426C246.361 58.1766 246.026 58.7646 245.652 59.5448C245.652 59.5558 245.641 59.5668 245.635 59.5778C245.399 60.1217 245.196 60.5888 245.025 60.9789C244.861 61.3525 244.679 61.7536 244.481 62.1657C244.278 62.5943 244.036 63.0943 243.767 63.6767C243.498 64.2537 243.157 64.9789 242.751 65.8581C242.547 66.2702 242.355 66.6713 242.179 67.0504C241.992 67.457 241.844 67.8361 241.729 68.1768C241.564 68.6713 241.52 69.0889 241.591 69.4515C241.652 69.7647 241.805 70.023 242.025 70.2153C241.371 71.4735 240.871 72.6164 240.536 73.6164C240.075 74.9791 239.844 76.3307 239.844 77.633C239.844 79.3308 240.278 80.677 241.141 81.644C242.036 82.6495 243.201 83.1605 244.608 83.1605C246.405 83.1605 248.042 82.5231 249.482 81.2594C250.817 80.089 251.966 78.5945 252.889 76.8143C253.79 75.078 254.493 73.1659 254.971 71.1384C255.449 69.1164 255.686 67.1713 255.686 65.3636C255.686 64.2537 255.554 63.1932 255.296 62.2042C255.026 61.1822 254.603 60.2591 254.037 59.4569C253.449 58.6272 252.713 57.9624 251.845 57.4788C250.955 56.9788 249.927 56.7261 248.79 56.7261L248.784 56.7316ZM246.289 75.6714C245.74 75.6714 245.273 75.5285 244.866 75.2373C244.663 75.0945 244.438 74.8472 244.438 74.2208C244.438 74.001 244.487 73.7428 244.586 73.4461C244.712 73.067 244.855 72.6823 245.015 72.2977C245.168 71.9296 245.339 71.5669 245.526 71.2318C245.586 71.1164 245.646 71.0065 245.707 70.8966C246.718 71.0999 247.548 71.4241 248.185 71.8636C248.817 72.2977 249.24 72.9351 249.471 73.8032C249.24 74.3802 248.866 74.8033 248.344 75.0945C247.658 75.4791 246.982 75.6659 246.284 75.6659L246.289 75.6714Z" fill="url(#paint26_linear_1974_1454)"/>
<path d="M262.367 55.5395C264.879 56.6274 266.621 58.1384 267.588 60.0725C268.555 62.0066 268.989 64.0945 268.884 66.3363C268.78 68.5781 268.291 70.7979 267.406 73.0067C266.522 75.2156 265.472 77.1112 264.252 78.7101C264.016 79.0508 263.565 79.364 262.9 79.6497C262.241 79.9409 261.686 80.0838 261.246 80.0838C259.823 80.0838 257.581 80.7651 254.526 82.1223C254.526 81.6113 254.576 81.1827 254.68 80.8255C254.784 80.4684 254.96 80.1552 255.213 79.886C255.466 79.6167 255.79 79.3365 256.18 79.0453C256.57 78.7596 257.054 78.4079 257.631 78.0013C258.004 77.7321 258.504 77.3585 259.131 76.8804C259.757 76.4079 260.411 75.9024 261.093 75.3804C261.774 74.8529 262.422 74.309 263.054 73.754C263.681 73.1936 264.181 72.71 264.554 72.3034C264.521 70.9133 263.977 69.6331 262.928 68.4572C261.878 67.2869 260.076 66.0561 257.532 64.7649C257.801 64.122 258.142 63.3802 258.548 62.5506C258.955 61.7209 259.389 60.8692 259.845 60.0066C260.301 59.1384 260.752 58.3197 261.197 57.5395C261.637 56.7593 262.027 56.0944 262.367 55.5559M262.367 54.457C261.999 54.457 261.642 54.6438 261.433 54.9735C261.087 55.5285 260.686 56.2098 260.235 57.001C259.79 57.7867 259.334 58.6274 258.873 59.4956C258.411 60.3692 257.971 61.2319 257.559 62.0725C257.147 62.9187 256.796 63.6824 256.515 64.3418C256.29 64.8748 256.515 65.4902 257.032 65.7484C259.444 66.9682 261.153 68.1276 262.109 69.1935C262.873 70.0452 263.307 70.9353 263.428 71.8968C263.126 72.2045 262.758 72.5507 262.323 72.9353C261.719 73.4738 261.076 74.0068 260.422 74.5178C259.746 75.0397 259.098 75.5397 258.471 76.0123C257.851 76.4848 257.356 76.853 256.988 77.1222C256.422 77.5233 255.927 77.8749 255.532 78.1717C255.092 78.4958 254.713 78.8255 254.416 79.1442C254.043 79.5453 253.779 80.0123 253.625 80.5343C253.493 80.9959 253.433 81.5179 253.433 82.1332C253.433 82.5069 253.619 82.853 253.933 83.0563C254.114 83.1717 254.323 83.2322 254.532 83.2322C254.685 83.2322 254.834 83.1992 254.977 83.1388C258.587 81.5343 260.384 81.1992 261.252 81.1992C261.851 81.1992 262.538 81.0288 263.346 80.6772C264.192 80.309 264.78 79.886 265.142 79.3805C266.412 77.7156 267.522 75.7156 268.434 73.4353C269.357 71.1276 269.879 68.7594 269.989 66.4078C270.099 63.9901 269.621 61.6989 268.577 59.6055C267.494 57.4406 265.554 55.7428 262.813 54.5559C262.67 54.4955 262.521 54.468 262.378 54.468L262.367 54.457Z" fill="url(#paint27_linear_1974_1454)"/>
</g>
<defs>
<linearGradient id="paint0_linear_1974_1454" x1="20.5786" y1="63.7149" x2="27.8479" y2="56.445" gradientUnits="userSpaceOnUse">
<stop stop-color="#54C0CA"/>
<stop offset="1" stop-color="#AEDB98"/>
</linearGradient>
<linearGradient id="paint1_linear_1974_1454" x1="39.1294" y1="110.76" x2="53.0307" y2="96.8577" gradientUnits="userSpaceOnUse">
<stop stop-color="#54C0CA"/>
<stop offset="1" stop-color="#AEDB98"/>
</linearGradient>
<linearGradient id="paint2_linear_1974_1454" x1="137.297" y1="24.0111" x2="144.478" y2="16.8347" gradientUnits="userSpaceOnUse">
<stop stop-color="#54C0CA"/>
<stop offset="1" stop-color="#AEDB98"/>
</linearGradient>
<linearGradient id="paint3_linear_1974_1454" x1="162.299" y1="27.4783" x2="191.777" y2="-1.99664" gradientUnits="userSpaceOnUse">
<stop stop-color="#54C0CA"/>
<stop offset="1" stop-color="#AEDB98"/>
</linearGradient>
<linearGradient id="paint4_linear_1974_1454" x1="206.303" y1="42.3247" x2="213.478" y2="35.1428" gradientUnits="userSpaceOnUse">
<stop stop-color="#54C0CA"/>
<stop offset="1" stop-color="#AEDB98"/>
</linearGradient>
<linearGradient id="paint5_linear_1974_1454" x1="3.09897" y1="88.534" x2="52.7205" y2="38.9146" gradientUnits="userSpaceOnUse">
<stop stop-color="#54C0CA"/>
<stop offset="1" stop-color="#AEDB98"/>
</linearGradient>
<linearGradient id="paint6_linear_1974_1454" x1="57.263" y1="106.996" x2="145.314" y2="18.9337" gradientUnits="userSpaceOnUse">
<stop stop-color="#54C0CA"/>
<stop offset="1" stop-color="#AEDB98"/>
</linearGradient>
<linearGradient id="paint7_linear_1974_1454" x1="155.787" y1="65.6656" x2="181.167" y2="40.2844" gradientUnits="userSpaceOnUse">
<stop stop-color="#54C0CA"/>
<stop offset="1" stop-color="#AEDB98"/>
</linearGradient>
<linearGradient id="paint8_linear_1974_1454" x1="163.315" y1="89.7593" x2="185.513" y2="67.5597" gradientUnits="userSpaceOnUse">
<stop stop-color="#54C0CA"/>
<stop offset="1" stop-color="#AEDB98"/>
</linearGradient>
<linearGradient id="paint9_linear_1974_1454" x1="179.273" y1="74.1494" x2="204.652" y2="48.7682" gradientUnits="userSpaceOnUse">
<stop stop-color="#54C0CA"/>
<stop offset="1" stop-color="#AEDB98"/>
</linearGradient>
<linearGradient id="paint10_linear_1974_1454" x1="219.496" y1="92.0615" x2="230.128" y2="81.4233" gradientUnits="userSpaceOnUse">
<stop stop-color="#54C0CA"/>
<stop offset="1" stop-color="#AEDB98"/>
</linearGradient>
<linearGradient id="paint11_linear_1974_1454" x1="188.565" y1="98.1494" x2="235.428" y2="51.2829" gradientUnits="userSpaceOnUse">
<stop stop-color="#54C0CA"/>
<stop offset="1" stop-color="#AEDB98"/>
</linearGradient>
<linearGradient id="paint12_linear_1974_1454" x1="239.3" y1="78.2703" x2="255.36" y2="62.2085" gradientUnits="userSpaceOnUse">
<stop stop-color="#54C0CA"/>
<stop offset="1" stop-color="#AEDB98"/>
</linearGradient>
<linearGradient id="paint13_linear_1974_1454" x1="251.432" y1="79.0174" x2="269.273" y2="61.1698" gradientUnits="userSpaceOnUse">
<stop stop-color="#54C0CA"/>
<stop offset="1" stop-color="#AEDB98"/>
</linearGradient>
<linearGradient id="paint14_linear_1974_1454" x1="17.331" y1="59.8527" x2="30.5024" y2="59.8527" gradientUnits="userSpaceOnUse">
<stop stop-color="#15586D"/>
<stop offset="1" stop-color="#29ABE2"/>
</linearGradient>
<linearGradient id="paint15_linear_1974_1454" x1="33.5194" y1="103.342" x2="57.8126" y2="103.342" gradientUnits="userSpaceOnUse">
<stop stop-color="#15586D"/>
<stop offset="1" stop-color="#29ABE2"/>
</linearGradient>
<linearGradient id="paint16_linear_1974_1454" x1="133.885" y1="20.1487" x2="146.93" y2="20.1487" gradientUnits="userSpaceOnUse">
<stop stop-color="#15586D"/>
<stop offset="1" stop-color="#29ABE2"/>
</linearGradient>
<linearGradient id="paint17_linear_1974_1454" x1="157.458" y1="12.4287" x2="196.011" y2="12.4287" gradientUnits="userSpaceOnUse">
<stop stop-color="#15586D"/>
<stop offset="1" stop-color="#29ABE2"/>
</linearGradient>
<linearGradient id="paint18_linear_1974_1454" x1="202.89" y1="38.4621" x2="215.935" y2="38.4621" gradientUnits="userSpaceOnUse">
<stop stop-color="#15586D"/>
<stop offset="1" stop-color="#29ABE2"/>
</linearGradient>
<linearGradient id="paint19_linear_1974_1454" x1="6.40627e-05" y1="67.3198" x2="55.6365" y2="67.3198" gradientUnits="userSpaceOnUse">
<stop stop-color="#15586D"/>
<stop offset="1" stop-color="#29ABE2"/>
</linearGradient>
<linearGradient id="paint20_linear_1974_1454" x1="39.3109" y1="59.5283" x2="159.711" y2="59.5283" gradientUnits="userSpaceOnUse">
<stop stop-color="#15586D"/>
<stop offset="1" stop-color="#29ABE2"/>
</linearGradient>
<linearGradient id="paint21_linear_1974_1454" x1="162.601" y1="52.7042" x2="174.47" y2="52.7042" gradientUnits="userSpaceOnUse">
<stop stop-color="#15586D"/>
<stop offset="1" stop-color="#29ABE2"/>
</linearGradient>
<linearGradient id="paint22_linear_1974_1454" x1="162.211" y1="76.9461" x2="183.196" y2="76.9461" gradientUnits="userSpaceOnUse">
<stop stop-color="#15586D"/>
<stop offset="1" stop-color="#29ABE2"/>
</linearGradient>
<linearGradient id="paint23_linear_1974_1454" x1="186.087" y1="61.1931" x2="197.956" y2="61.1931" gradientUnits="userSpaceOnUse">
<stop stop-color="#15586D"/>
<stop offset="1" stop-color="#29ABE2"/>
</linearGradient>
<linearGradient id="paint24_linear_1974_1454" x1="219.435" y1="86.1608" x2="228.815" y2="86.1608" gradientUnits="userSpaceOnUse">
<stop stop-color="#15586D"/>
<stop offset="1" stop-color="#29ABE2"/>
</linearGradient>
<linearGradient id="paint25_linear_1974_1454" x1="184.103" y1="73.1053" x2="238.739" y2="73.1053" gradientUnits="userSpaceOnUse">
<stop stop-color="#15586D"/>
<stop offset="1" stop-color="#29ABE2"/>
</linearGradient>
<linearGradient id="paint26_linear_1974_1454" x1="239.838" y1="69.946" x2="255.68" y2="69.946" gradientUnits="userSpaceOnUse">
<stop stop-color="#15586D"/>
<stop offset="1" stop-color="#29ABE2"/>
</linearGradient>
<linearGradient id="paint27_linear_1974_1454" x1="253.427" y1="68.8254" x2="270" y2="68.8254" gradientUnits="userSpaceOnUse">
<stop stop-color="#15586D"/>
<stop offset="1" stop-color="#29ABE2"/>
</linearGradient>
<clipPath id="clip0_1974_1454">
<rect width="270" height="110.809" fill="white"/>
</clipPath>
</defs>
</svg>
