<svg width="248" height="26" viewBox="0 0 248 26" fill="none" xmlns="http://www.w3.org/2000/svg">
<g id="Isolation_Mode" clip-path="url(#clip0_1974_78)">
<path id="Vector" d="M217.3 7.42676H209.841V11.1401H211.684V13.0364C211.684 14.0407 210.853 14.8534 209.841 14.8534H206.108C205.257 14.8534 204.453 15.0384 203.736 15.3754C204.071 14.6618 204.265 13.8689 204.265 13.0364V12.9637C204.265 9.91113 201.745 7.42676 198.649 7.42676C195.553 7.42676 193.033 9.91113 193.033 12.9637V14.86H191.19C190.172 14.86 189.347 14.0407 189.347 13.043V9.29004H185.581V20.4697C185.581 21.474 184.75 22.2867 183.738 22.2867H181.875V26.0001H183.738C186.834 26.0001 189.354 23.5157 189.354 20.4631V18.2628C189.93 18.4611 190.554 18.5734 191.197 18.5734H193.04V20.4697C193.04 23.5223 195.56 26.0067 198.656 26.0067H206.115V22.2933H204.272V20.397C204.272 19.3927 205.103 18.58 206.115 18.58H209.848C211.275 18.58 212.582 18.0514 213.574 17.1792C214.565 18.0514 215.872 18.58 217.306 18.58C220.403 18.58 222.922 16.0956 222.922 13.043V12.9703C222.922 9.91774 220.403 7.43337 217.306 7.43337L217.3 7.42676ZM196.806 12.9637C196.806 11.9594 197.637 11.1467 198.649 11.1467C199.661 11.1467 200.492 11.966 200.492 12.9637V13.0364C200.492 14.0407 199.661 14.8534 198.649 14.8534H196.806V12.9571V12.9637ZM200.499 20.3904V22.2867H198.656C197.637 22.2867 196.813 21.4674 196.813 20.4697V18.5734H198.656C199.507 18.5734 200.311 18.3884 201.028 18.0514C200.693 18.765 200.499 19.5579 200.499 20.3904ZM219.149 13.0364C219.149 14.0407 218.318 14.8534 217.306 14.8534C216.294 14.8534 215.463 14.0341 215.463 13.0364V11.1401H217.306C218.325 11.1401 219.149 11.9594 219.149 12.9571V13.0298V13.0364Z" fill="#357F80"/>
<path id="Vector_2" d="M161.569 13.0363C161.569 14.0407 160.738 14.8534 159.726 14.8534H155.994C154.975 14.8534 154.151 14.0341 154.151 13.0363V0H150.384V13.0363C150.384 16.0889 152.904 18.5733 156 18.5733H159.733C162.829 18.5733 165.349 16.0889 165.349 13.0363V9.28336H161.583V13.0363H161.569Z" fill="#357F80"/>
<path id="Vector_3" d="M161.589 22.2871H157.856V26.0005H161.589V22.2871Z" fill="#357F80"/>
<path id="Vector_4" d="M88.4276 22.2871H84.6948V26.0005H88.4276V22.2871Z" fill="#357F80"/>
<path id="Vector_5" d="M82.8051 22.2871H79.0723V26.0005H82.8051V22.2871Z" fill="#357F80"/>
<path id="Vector_6" d="M148.535 3.71289H144.802V7.42623H148.535V3.71289Z" fill="#357F80"/>
<path id="Vector_7" d="M67.1366 0H63.4038V3.71334H67.1366V0Z" fill="#357F80"/>
<path id="Vector_8" d="M133.637 20.4298C133.637 19.4057 134.481 18.5732 135.52 18.5732H142.939C146.035 18.5732 148.555 16.0888 148.555 13.0362V9.2832H144.789V13.0362C144.789 14.0405 143.958 14.8532 142.946 14.8532H135.527C132.411 14.8532 129.877 17.3508 129.877 20.4232C129.877 23.4957 132.411 25.9932 135.527 25.9932H154.137V22.2799H135.527C134.488 22.2799 133.644 21.4474 133.644 20.4232L133.637 20.4298Z" fill="#357F80"/>
<path id="Vector_9" d="M42.9035 0H39.1372V18.5733H42.9035V0Z" fill="#357F80"/>
<path id="Vector_10" d="M31.6651 7.42653H16.7875V11.1399H18.9455C18.7444 11.7081 18.6305 12.3226 18.6305 12.9569V13.0296C18.6305 13.6639 18.7444 14.2784 18.9455 14.8466H14.9245C13.9059 14.8466 13.0816 14.0273 13.0816 13.0296C13.0816 13.0296 13.0816 13.0031 13.0816 12.9899C13.0816 9.91751 10.5483 7.41992 7.43209 7.41992H1.86305V11.1333H7.41869C8.45744 11.1333 9.30184 11.9658 9.30184 12.9899C9.30184 14.0141 8.45744 14.8466 7.41869 14.8466H0V18.5599H7.41869C8.85954 18.5599 10.1731 18.0248 11.1716 17.146C12.1634 18.0248 13.4769 18.5599 14.9111 18.5599H31.6584C34.7747 18.5599 37.3079 16.0624 37.3079 12.9899C37.3079 9.91751 34.7747 7.41992 31.6584 7.41992L31.6651 7.42653ZM26.0894 13.0362C26.0894 14.0405 25.2584 14.8532 24.2464 14.8532C23.2345 14.8532 22.4035 14.0339 22.4035 13.0362V12.9635C22.4035 11.9592 23.2345 11.1465 24.2464 11.1465C25.2584 11.1465 26.0894 11.9658 26.0894 12.9635V13.0362ZM31.6651 14.8532H29.5407C29.7418 14.285 29.8557 13.6705 29.8557 13.0362V12.9635C29.8557 12.3292 29.7418 11.7147 29.5407 11.1465H31.6651C32.7039 11.1465 33.5483 11.979 33.5483 13.0031C33.5483 14.0273 32.7039 14.8598 31.6651 14.8598V14.8532Z" fill="#357F80"/>
<path id="Vector_11" d="M248 9.88463V6.17128H243.034V0H239.268V6.17128H235.522V0H231.755V6.17128H226.79V9.88463H231.755V16.1154H226.79V19.8287H231.755V26H235.522V19.8287H239.268V26H243.034V19.8287H248V16.1154H243.034V9.88463H248ZM239.268 16.1154H235.522V9.88463H239.268V16.1154Z" fill="#357F80"/>
<path id="Vector_12" d="M181.661 14.8604H168.606V18.5737H181.661V14.8604Z" fill="#357F80"/>
<path id="Vector_13" d="M127.733 14.8604H114.678V18.5737H127.733V14.8604Z" fill="#357F80"/>
<path id="Vector_14" d="M107.065 7.47314H99.6061V11.1865H101.456V13.0828C101.456 14.0871 100.625 14.9064 99.6061 14.9064H95.8733V14.8602H92.1405C91.1219 14.8602 90.2909 14.0475 90.2909 13.0365V9.28356H86.5312V13.0365C86.5312 14.0475 85.7002 14.8602 84.6816 14.8602H77.2227C76.2041 14.8602 75.3731 14.0475 75.3731 13.0365V13.0035H78.3151V9.29017H75.3731H75.2189L70.8696 6.04595C68.6379 4.37428 65.4614 4.59893 63.4911 6.56132L60.1939 9.84518L62.8745 12.4551L66.1717 9.17123C66.8218 8.52371 67.8605 8.45103 68.5977 8.99944L71.6135 11.2526V11.4706L68.7519 14.3184C68.4101 14.662 67.9276 14.8602 67.4383 14.8602H55.9585V12.9639C55.9585 9.91126 53.4387 7.42689 50.3425 7.42689C47.2464 7.42689 44.7266 9.91126 44.7266 12.9639V13.0365C44.7266 16.0891 47.2464 18.5735 50.3425 18.5735H52.1855V20.4698C52.1855 21.4742 51.3545 22.2869 50.3425 22.2869H44.7467V26.0002H50.3425C53.4387 26.0002 55.9585 23.5158 55.9585 20.4632V18.5669H67.4383C68.9261 18.5669 70.3804 17.9656 71.4258 16.9283L72.4377 15.9174C73.4229 17.5031 75.1921 18.5669 77.216 18.5669H84.6749C86.109 18.5669 87.4092 18.0317 88.401 17.1595C89.3928 18.0317 90.6997 18.5669 92.1271 18.5669H95.8599V18.6132H99.5927C101.02 18.6132 102.334 18.078 103.325 17.2124C104.317 18.078 105.624 18.6132 107.058 18.6132C110.154 18.6132 112.668 16.1288 112.668 13.0762V13.0035C112.668 9.9509 110.154 7.46653 107.058 7.46653L107.065 7.47314ZM52.1989 14.8536H50.3559C49.3373 14.8536 48.513 14.0343 48.513 13.0365V12.9639C48.513 11.9595 49.344 11.1468 50.3559 11.1468C51.3679 11.1468 52.1989 11.9662 52.1989 12.9639V14.8602V14.8536ZM108.915 13.0828C108.915 14.0871 108.084 14.9064 107.065 14.9064C106.046 14.9064 105.215 14.0871 105.215 13.0828V11.1865H107.065C108.084 11.1865 108.915 12.0058 108.915 13.0101V13.0828Z" fill="#357F80"/>
</g>
<defs>
<clipPath id="clip0_1974_78">
<rect width="248" height="26" fill="white"/>
</clipPath>
</defs>
</svg>
