<svg width="25" height="25" viewBox="0 0 25 25" fill="none" xmlns="http://www.w3.org/2000/svg">
<path d="M24.878 7.37887C24.8628 6.32969 24.6688 5.28884 24.2973 4.30757C23.6473 2.63194 22.3237 1.30696 20.6481 0.658333C19.6793 0.293824 18.6551 0.0984035 17.6184 0.0762281C16.2851 0.0166316 15.8623 0 12.4778 0C9.0933 0 8.6595 9.29361e-08 7.3359 0.0762281C6.30059 0.0984035 5.27636 0.293824 4.30757 0.658333C2.63194 1.30696 1.30696 2.63194 0.658332 4.30757C0.293824 5.27636 0.0970174 6.30059 0.0776139 7.3359C0.0180175 8.67059 0 9.0933 0 12.4778C0 15.8623 -1.03262e-08 16.2948 0.0776139 17.6197C0.0984034 18.6565 0.293824 19.6793 0.658332 20.6509C1.30835 22.3251 2.63194 23.6501 4.30896 24.2987C5.27359 24.6757 6.29782 24.8891 7.33729 24.9224C8.67197 24.982 9.09469 25 12.4792 25C15.8637 25 16.2975 25 17.6211 24.9224C18.6565 24.9016 19.6807 24.7062 20.6509 24.3417C22.3265 23.6917 23.6501 22.3667 24.3001 20.6924C24.6646 19.7223 24.86 18.6994 24.8808 17.6613C24.9404 16.328 24.9584 15.9053 24.9584 12.5194C24.9557 9.13488 24.9557 8.70523 24.878 7.37887ZM12.4695 18.8782C8.92976 18.8782 6.0622 16.0106 6.0622 12.4709C6.0622 8.93115 8.92976 6.06359 12.4695 6.06359C16.0065 6.06359 18.8768 8.93115 18.8768 12.4709C18.8768 16.0106 16.0065 18.8782 12.4695 18.8782ZM19.1318 7.32066C18.3044 7.32066 17.6378 6.65262 17.6378 5.82659C17.6378 5.00055 18.3044 4.33252 19.1318 4.33252C19.9565 4.33252 20.6245 5.00055 20.6245 5.82659C20.6245 6.65262 19.9565 7.32066 19.1318 7.32066Z" fill="#357F80"/>
<path d="M12.4697 16.6332C14.7683 16.6332 16.6317 14.7698 16.6317 12.4711C16.6317 10.1725 14.7683 8.30908 12.4697 8.30908C10.171 8.30908 8.30762 10.1725 8.30762 12.4711C8.30762 14.7698 10.171 16.6332 12.4697 16.6332Z" fill="#357F80"/>
</svg>
