<svg width="310" height="47" viewBox="0 0 310 47" fill="none" xmlns="http://www.w3.org/2000/svg">
<path d="M10.0807 32.644C8.25612 32.644 6.56841 32.202 5.01753 31.3181C3.49707 30.4037 2.2807 29.1845 1.36842 27.6605C0.456139 26.106 0 24.4296 0 22.6313C0 20.8635 0.456139 19.2633 1.36842 17.8307C2.2807 16.3677 3.49707 15.2247 5.01753 14.4018C6.56841 13.5483 8.25612 13.1216 10.0807 13.1216H13.0912V10.1955H19.5684V22.6313C19.5684 24.4601 19.1579 26.1365 18.3368 27.6605C17.5157 29.1845 16.3754 30.4037 14.9158 31.3181C13.4865 32.202 11.8748 32.644 10.0807 32.644ZM10.0807 25.7403C10.9321 25.7403 11.6468 25.4507 12.2245 24.8716C12.8023 24.262 13.0912 23.5152 13.0912 22.6313V19.7053H10.0807C9.19881 19.7053 8.45378 19.9796 7.8456 20.5282C7.26782 21.0768 6.97893 21.7779 6.97893 22.6313C6.97893 23.5152 7.26782 24.262 7.8456 24.8716C8.45378 25.4507 9.19881 25.7403 10.0807 25.7403ZM21.6666 34.0156C20.0853 34.0156 18.7017 33.6346 17.5158 32.8726C16.3602 32.1106 15.4631 31.0743 14.8245 29.7636C14.2163 28.4225 13.9122 26.9595 13.9122 25.3745V16.9621H19.5684V24.963C19.5684 25.5726 19.766 26.0908 20.1614 26.5175C20.5567 26.9137 21.0584 27.1119 21.6666 27.1119H23.5824C23.8865 27.1119 24.0385 27.2643 24.0385 27.5691V33.5584C24.0385 33.8632 23.8865 34.0156 23.5824 34.0156H21.6666Z" fill="#357F80"/>
<path d="M23.5639 34.0156C23.2598 34.0156 23.1077 33.8632 23.1077 33.5584V27.5691C23.1077 27.2643 23.2598 27.1119 23.5639 27.1119H25.2972C25.875 27.1119 26.3615 26.8985 26.7568 26.4718C27.1826 26.0451 27.3954 25.5422 27.3954 24.963V3.20039H33.9182V25.3745C33.9182 26.929 33.5381 28.3768 32.7779 29.7179C32.0177 31.0285 30.9837 32.0801 29.6761 32.8726C28.3685 33.6346 26.9241 34.0156 25.3428 34.0156H23.5639Z" fill="#357F80"/>
<path d="M41.1092 41.1936C43.8156 40.0353 45.8226 39.0905 47.1302 38.359C48.4682 37.6274 49.3805 36.9416 49.8671 36.3016C50.3536 35.6615 50.5969 34.8995 50.5969 34.0156H47.632C45.8074 34.0156 44.1349 33.6041 42.6145 32.7811C41.094 31.9582 39.8776 30.8304 38.9653 29.3979C38.0835 27.9348 37.6425 26.3042 37.6425 24.5058C37.6425 22.677 38.0835 21.0006 38.9653 19.4767C39.8776 17.9527 41.094 16.7487 42.6145 15.8648C44.1349 14.9504 45.8074 14.4932 47.632 14.4932C49.3957 14.4932 51.0074 14.9504 52.4671 15.8648C53.9267 16.7487 55.0671 17.9527 55.8881 19.4767C56.7092 21.0006 57.1197 22.677 57.1197 24.5058V31.1809C57.1197 34.0156 56.6787 36.3016 55.7969 38.0389C54.9454 39.8067 53.5466 41.3307 51.6004 42.6109C49.6846 43.9215 46.8718 45.3846 43.1618 47L41.1092 41.1936ZM47.632 27.5233H50.5969V24.4601C50.5969 23.5762 50.308 22.8447 49.7302 22.2656C49.1829 21.6864 48.4834 21.3969 47.632 21.3969C46.7501 21.3969 46.0051 21.6864 45.3969 22.2656C44.8191 22.8447 44.5302 23.5762 44.5302 24.4601C44.5302 25.344 44.8191 26.0756 45.3969 26.6547C46.0051 27.2338 46.7501 27.5233 47.632 27.5233ZM56.8004 27.1119H58.9899C59.2939 27.1119 59.446 27.2643 59.446 27.5691V33.5584C59.446 33.8632 59.2939 34.0156 58.9899 34.0156H56.8004V27.1119Z" fill="#357F80"/>
<path d="M58.5209 27.5691C58.5209 27.2643 58.6729 27.1119 58.977 27.1119H69.2402C70.0612 27.1119 70.7606 26.8375 71.3384 26.2889C71.9162 25.7403 72.2051 25.0088 72.2051 24.0944C72.2051 22.9971 71.6881 22.1284 70.6542 21.4883L60.3455 14.6761V9.69261L69.4226 0L73.9384 4.25195L67.1419 11.3385L74.7138 16.322C75.991 17.1449 76.9793 18.2575 77.6787 19.6595C78.4086 21.0311 78.7735 22.5551 78.7735 24.2315C78.7735 25.9994 78.3325 27.63 77.4507 29.1235C76.5992 30.6171 75.4437 31.8058 73.984 32.6897C72.5244 33.5736 70.9127 34.0156 69.1489 34.0156H58.977C58.6729 34.0156 58.5209 33.8632 58.5209 33.5584V27.5691Z" fill="#357F80"/>
<path d="M96.4223 34.0156C94.3241 34.0156 92.3931 33.4974 90.6294 32.4611C88.8656 31.4248 87.4668 30.0227 86.4329 28.2549C85.399 26.487 84.882 24.5516 84.882 22.4484V17.0078H91.4504V22.0827C91.4504 23.4543 91.937 24.643 92.9101 25.6488C93.8832 26.6242 95.0539 27.1119 96.4223 27.1119H110.928C111.749 27.1119 112.448 26.8375 113.026 26.2889C113.634 25.7403 113.938 25.0088 113.938 24.0944C113.938 22.9971 113.406 22.1284 112.342 21.4883L102.078 14.6761V9.69261L111.156 0L115.626 4.25195L108.875 11.3385L116.447 16.322C117.724 17.1449 118.712 18.2575 119.412 19.6595C120.142 21.0311 120.507 22.5551 120.507 24.2315C120.507 25.9994 120.066 27.63 119.184 29.1235C118.332 30.6171 117.177 31.8058 115.717 32.6897C114.257 33.5736 112.646 34.0156 110.882 34.0156H96.4223ZM122.605 34.0156C120.263 34.0156 118.454 33.2078 117.177 31.5924C115.899 29.9465 115.261 27.8739 115.261 25.3745V24.2315H120.507V24.963C120.476 25.5726 120.659 26.0908 121.054 26.5175C121.449 26.9137 121.966 27.1119 122.605 27.1119H124.521C124.825 27.1119 124.977 27.2643 124.977 27.5691V33.5584C124.977 33.8632 124.825 34.0156 124.521 34.0156H122.605Z" fill="#357F80"/>
<path d="M124.522 34.0156C124.218 34.0156 124.066 33.8632 124.066 33.5584V27.5691C124.066 27.2643 124.218 27.1119 124.522 27.1119H129.449C130.026 27.1119 130.513 26.8985 130.908 26.4718C131.334 26.0451 131.547 25.5422 131.547 24.963V15.5905H138.07V25.3745C138.07 26.929 137.69 28.3768 136.929 29.7179C136.169 31.0285 135.135 32.0801 133.828 32.8726C132.52 33.6346 131.076 34.0156 129.494 34.0156H124.522ZM124.568 37.9475H130.406V43.7996H124.568V37.9475ZM132.778 37.9475H138.663V43.7996H132.778V37.9475Z" fill="#357F80"/>
<path d="M150.341 34.0156C149.094 34.0156 148.075 33.6041 147.285 32.7811C146.524 31.9582 146.144 30.9676 146.144 29.8093C146.144 28.2244 146.555 26.4261 147.376 24.4144C148.227 22.4027 149.565 20.2234 151.39 17.8765L155.085 20.3911C154.263 21.4883 153.199 23.1342 151.892 25.3288L151.39 26.1975C152.15 26.167 152.865 26.5175 153.534 27.249C154.233 27.9805 154.583 28.8187 154.583 29.7636C154.583 30.9523 154.157 31.9582 153.306 32.7811C152.485 33.6041 151.496 34.0156 150.341 34.0156Z" fill="#357F80"/>
<path d="M170.855 34.0156C168.757 34.0156 166.826 33.4974 165.062 32.4611C163.298 31.4248 161.899 30.0227 160.865 28.2549C159.831 26.487 159.314 24.5516 159.314 22.4484V17.0078H165.883V22.0827C165.883 23.4543 166.369 24.643 167.343 25.6488C168.316 26.6242 169.486 27.1119 170.855 27.1119H185.36C186.181 27.1119 186.881 26.8375 187.458 26.2889C188.066 25.7403 188.371 25.0088 188.371 24.0944C188.371 22.9971 187.838 22.1284 186.774 21.4883L176.511 14.6761V9.69261L185.588 0L190.058 4.25195L183.307 11.3385L190.879 16.322C192.157 17.1449 193.145 18.2575 193.844 19.6595C194.574 21.0311 194.939 22.5551 194.939 24.2315C194.939 25.9994 194.498 27.63 193.616 29.1235C192.765 30.6171 191.609 31.8058 190.15 32.6897C188.69 33.5736 187.078 34.0156 185.314 34.0156H170.855ZM197.037 34.0156C194.696 34.0156 192.886 33.2078 191.609 31.5924C190.332 29.9465 189.693 27.8739 189.693 25.3745V24.2315H194.939V24.963C194.909 25.5726 195.091 26.0908 195.486 26.5175C195.882 26.9137 196.399 27.1119 197.037 27.1119H198.953C199.257 27.1119 199.409 27.2643 199.409 27.5691V33.5584C199.409 33.8632 199.257 34.0156 198.953 34.0156H197.037Z" fill="#357F80"/>
<path d="M198.499 27.5691C198.499 27.2643 198.651 27.1119 198.955 27.1119H201.92C202.528 27.1119 203.03 26.9137 203.425 26.5175C203.82 26.0908 204.018 25.5726 204.018 24.963V16.9621H210.586V24.963C210.586 25.5726 210.784 26.0908 211.179 26.5175C211.575 26.9137 212.076 27.1119 212.685 27.1119H215.649C215.954 27.1119 216.106 27.2643 216.106 27.5691V33.5584C216.106 33.8632 215.954 34.0156 215.649 34.0156H212.685C210.434 34.0156 208.64 33.2688 207.302 31.7753C205.903 33.2688 204.109 34.0156 201.92 34.0156H198.955C198.651 34.0156 198.499 33.8632 198.499 33.5584V27.5691ZM200.232 37.9475H206.071V43.7996H200.232V37.9475ZM208.442 37.9475H214.327V43.7996H208.442V37.9475Z" fill="#357F80"/>
<path d="M215.659 34.0156C215.355 34.0156 215.203 33.8632 215.203 33.5584V27.5691C215.203 27.2643 215.355 27.1119 215.659 27.1119H217.575C218.183 27.1119 218.685 26.9137 219.08 26.5175C219.506 26.0908 219.719 25.5726 219.719 24.963V3.20039H226.242V24.963C226.242 25.5726 226.439 26.0908 226.835 26.5175C227.23 26.9137 227.732 27.1119 228.34 27.1119H230.301C230.605 27.1119 230.757 27.2643 230.757 27.5691V33.5584C230.757 33.8632 230.605 34.0156 230.301 34.0156H228.34C227.184 34.0156 226.15 33.787 225.238 33.3298C224.326 32.8726 223.566 32.2477 222.957 31.4553C222.38 32.2477 221.619 32.8726 220.677 33.3298C219.764 33.787 218.73 34.0156 217.575 34.0156H215.659Z" fill="#357F80"/>
<path d="M229.858 27.5691C229.858 27.2643 230.01 27.1119 230.314 27.1119H240.577C241.399 27.1119 242.098 26.8375 242.676 26.2889C243.254 25.7403 243.542 25.0088 243.542 24.0944C243.542 22.9971 243.025 22.1284 241.992 21.4883L231.683 14.6761V9.69261L240.76 0L245.276 4.25195L238.479 11.3385L246.051 16.322C247.328 17.1449 248.317 18.2575 249.016 19.6595C249.746 21.0311 250.111 22.5551 250.111 24.2315C250.111 25.9994 249.67 27.63 248.788 29.1235C247.937 30.6171 246.781 31.8058 245.321 32.6897C243.862 33.5736 242.25 34.0156 240.486 34.0156H230.314C230.01 34.0156 229.858 33.8632 229.858 33.5584V27.5691Z" fill="#357F80"/>
<path d="M267.76 34.0156C265.661 34.0156 263.73 33.4974 261.967 32.4611C260.203 31.4248 258.804 30.0227 257.77 28.2549C256.736 26.487 256.219 24.5516 256.219 22.4484V17.0078H262.788V22.0827C262.788 23.4543 263.274 24.643 264.247 25.6488C265.22 26.6242 266.391 27.1119 267.76 27.1119H282.265C283.086 27.1119 283.785 26.8375 284.363 26.2889C284.971 25.7403 285.275 25.0088 285.275 24.0944C285.275 22.9971 284.743 22.1284 283.679 21.4883L273.416 14.6761V9.69261L282.493 0L286.963 4.25195L280.212 11.3385L287.784 16.322C289.061 17.1449 290.05 18.2575 290.749 19.6595C291.479 21.0311 291.844 22.5551 291.844 24.2315C291.844 25.9994 291.403 27.63 290.521 29.1235C289.67 30.6171 288.514 31.8058 287.054 32.6897C285.595 33.5736 283.983 34.0156 282.219 34.0156H267.76ZM293.942 34.0156C291.601 34.0156 289.791 33.2078 288.514 31.5924C287.237 29.9465 286.598 27.8739 286.598 25.3745V24.2315H291.844V24.963C291.813 25.5726 291.996 26.0908 292.391 26.5175C292.787 26.9137 293.303 27.1119 293.942 27.1119H295.858C296.162 27.1119 296.314 27.2643 296.314 27.5691V33.5584C296.314 33.8632 296.162 34.0156 295.858 34.0156H293.942Z" fill="#357F80"/>
<path d="M295.86 34.0156C295.556 34.0156 295.404 33.8632 295.404 33.5584V27.5691C295.404 27.2643 295.556 27.1119 295.86 27.1119H300.786C301.364 27.1119 301.85 26.8985 302.246 26.4718C302.671 26.0451 302.884 25.5422 302.884 24.963V15.5905H309.407V25.3745C309.407 26.929 309.027 28.3768 308.267 29.7179C307.506 31.0285 306.473 32.0801 305.165 32.8726C303.857 33.6346 302.413 34.0156 300.832 34.0156H295.86ZM295.905 37.9475H301.744V43.7996H295.905V37.9475ZM304.116 37.9475H310V43.7996H304.116V37.9475Z" fill="#357F80"/>
</svg>
